<svg width="2184" height="661" xmlns="http://www.w3.org/2000/svg" xmlns:xlink="http://www.w3.org/1999/xlink" overflow="hidden"><defs><clipPath id="clip0"><rect x="1108" y="907" width="2184" height="661"/></clipPath><clipPath id="clip1"><rect x="1335" y="1116" width="384" height="243"/></clipPath><clipPath id="clip2"><rect x="1335" y="1116" width="384" height="243"/></clipPath><clipPath id="clip3"><rect x="1335" y="1116" width="384" height="243"/></clipPath><clipPath id="clip4"><rect x="2777" y="1010" width="316" height="455"/></clipPath><clipPath id="clip5"><rect x="2777" y="1010" width="316" height="455"/></clipPath><clipPath id="clip6"><rect x="2777" y="1010" width="316" height="455"/></clipPath></defs><g clip-path="url(#clip0)" transform="translate(-1108 -907)"><path d="M1459.37 907.002C1655.11 906.287 1967.78 1124.44 2214.66 1124.44 2461.54 1124.44 2746.6 907.002 2940.63 907.002 3134.66 907.002 3293.28 1061.04 3291.99 1234.89 3290.71 1408.74 3118.41 1560.54 2940.63 1567.82 2762.86 1575.11 2459.73 1353.05 2212.72 1353.29 1966.01 1353.05 1660.33 1569.31 1459.37 1567.82 1258.4 1566.34 1106.72 1398.31 1108.01 1239.94 1109.29 1081.56 1263.62 907.717 1459.37 907.002Z" fill="#58C4DD" fill-rule="evenodd" fill-opacity="0.419608"/><g clip-path="url(#clip1)"><g clip-path="url(#clip2)"><g clip-path="url(#clip3)"><path d="M235.985 180.75 226.298 180.75C205.772 168.336 165.497 160.664 120.5 160.664 75.5078 160.664 35.2292 168.336 14.7023 180.75L5.0197 180.75C2.24719 180.75 0 182.993 0 185.773L0 200.836C0 212.788 12.9258 223.047 37.3804 230.49 59.6542 237.264 89.1722 241 120.5 241 151.832 241 181.346 237.264 203.624 230.49 228.071 223.047 241 212.788 241 200.836L241 185.773C241 182.993 238.75 180.75 235.985 180.75Z" fill="#ED5564" transform="matrix(1.58921 0 0 1 1335 1117)"/><path d="M230.689 85.3557 10.3115 85.3557C7.5385 85.3557 5.29178 87.6024 5.29178 90.3754L5.29178 185.774C5.29178 194.085 11.4958 205.978 41.0581 215.406 62.3499 222.194 90.5627 225.937 120.5 225.937 150.434 225.937 178.647 222.194 199.946 215.406 229.505 205.977 235.705 194.084 235.705 185.773L235.705 90.3749C235.705 87.6024 233.462 85.3557 230.689 85.3557Z" fill="#DA4453" transform="matrix(1.58921 0 0 1 1335 1117)"/><path d="M235.985 85.3557 226.298 85.3557C205.771 72.9443 165.497 65.2736 120.5 65.2736 75.5078 65.2736 35.2292 72.9443 14.7023 85.3557L5.0197 85.3557C2.24719 85.3557 0 87.6024 0 90.3754L0 105.438C0 117.397 12.9258 127.65 37.3804 135.092 59.6542 141.873 89.1722 145.602 120.5 145.602 151.832 145.602 181.346 141.873 203.624 135.092 228.071 127.649 241 117.397 241 105.438L241 90.3754C241 87.6024 238.75 85.3557 235.985 85.3557Z" fill="#ED5564" transform="matrix(1.58921 0 0 1 1335 1117)"/><path d="M120.5 125.52C89.6542 125.52 60.6544 121.864 38.8443 115.227 17.0338 108.589 5.0197 99.7633 5.0197 90.3754 5.0197 80.9874 17.0338 72.1615 38.8443 65.524 60.6544 58.8855 89.6542 55.2304 120.5 55.2304 151.346 55.2304 180.346 58.8855 202.153 65.5235 223.967 72.161 235.985 80.987 235.985 90.3749 235.985 99.7628 223.967 108.589 202.153 115.226 180.346 121.864 151.346 125.52 120.5 125.52Z" fill="#E6E9ED" transform="matrix(1.58921 0 0 1 1335 1117)"/><path d="M203.624 60.7208C181.346 53.9434 151.832 50.2111 120.5 50.2111 89.1727 50.2111 59.6546 53.9434 37.3804 60.7208 12.9258 68.1637 0 78.4202 0 90.3754 0 102.334 12.9258 112.587 37.3804 120.03 59.6542 126.811 89.1722 130.54 120.5 130.54 151.832 130.54 181.346 126.811 203.624 120.03 228.071 112.587 241 102.334 241 90.3754 241 78.4202 228.071 68.1637 203.624 60.7208ZM225.239 99.028C219.988 103.195 211.5 107.137 200.696 110.424 179.346 116.922 150.861 120.5 120.5 120.5 90.1362 120.5 61.6547 116.922 40.304 110.424 29.4997 107.137 21.0127 103.194 15.7609 99.028 11.966 96.0197 10.0427 93.1074 10.0427 90.3754 10.0427 87.6433 11.966 84.7343 15.7609 81.7227 21.0122 77.5559 29.4997 73.6179 40.304 70.3267 61.6547 63.8285 90.1358 60.2506 120.5 60.2506 150.861 60.2506 179.346 63.8289 200.696 70.3267 211.5 73.6179 219.988 77.5559 225.239 81.7227 229.034 84.7343 230.954 87.6433 230.954 90.3754 230.954 93.1074 229.034 96.0197 225.239 99.028Z" fill="#ED5564" transform="matrix(1.58921 0 0 1 1335 1117)"/><path d="M65.2698 236.727C62.4968 236.727 60.2501 234.477 60.2501 231.704L60.2501 121.247C60.2501 118.474 62.4968 116.227 65.2698 116.227 68.0428 116.227 70.2928 118.474 70.2928 121.247L70.2928 231.704C70.2928 234.477 68.0428 236.727 65.2698 236.727Z" fill="#434A54" transform="matrix(1.58921 0 0 1 1335 1117)"/><path d="M175.734 236.727C172.954 236.727 170.704 234.477 170.704 231.704L170.704 121.247C170.704 118.474 172.954 116.227 175.734 116.227 178.5 116.227 180.75 118.474 180.75 121.247L180.75 231.704C180.75 234.477 178.5 236.727 175.734 236.727Z" fill="#434A54" transform="matrix(1.58921 0 0 1 1335 1117)"/><path d="M105.522 89.7498C104.43 89.7498 103.331 89.393 102.408 88.6615L1.90122 8.95441C-0.272073 7.23347-0.635936 4.07451 1.08876 1.90122 2.8097-0.272073 5.96866-0.635936 8.14195 1.08876L108.648 80.7921C110.818 82.5168 111.186 85.6757 109.461 87.849 108.472 89.0955 107.004 89.7498 105.522 89.7498Z" fill="#F4BE8E" transform="matrix(1.58921 0 0 1 1335 1117)"/><path d="M135.475 89.7498C133.996 89.7498 132.533 89.0955 131.54 87.8486 129.812 85.6753 130.179 82.5163 132.357 80.7916L232.859 1.08876C235.028-0.635936 238.191-0.272073 239.912 1.90122 241.633 4.07451 241.272 7.23347 239.102 8.95441L138.593 88.6615C137.666 89.3934 136.57 89.7498 135.475 89.7498Z" fill="#F4BE8E" transform="matrix(1.58921 0 0 1 1335 1117)"/></g></g></g><g clip-path="url(#clip4)"><g clip-path="url(#clip5)"><g clip-path="url(#clip6)"><path d="M307.466 235.5 294.845 235.5C268.101 219.325 215.626 209.33 157 209.33 98.3794 209.33 45.9003 219.325 19.1557 235.5L6.54019 235.5C2.92788 235.5 0 238.423 0 242.045L0 261.67C0 277.242 16.8411 290.609 48.7031 300.307 77.7236 309.132 116.183 314 157 314 197.822 314 236.277 309.132 265.302 300.307 297.155 290.609 314 277.242 314 261.67L314 242.045C314 238.423 311.068 235.5 307.466 235.5Z" fill="#ED5564" transform="matrix(1 0 0 1.44267 2778 1011)"/><path d="M300.566 111.21 13.4349 111.21C9.82194 111.21 6.89467 114.137 6.89467 117.75L6.89467 242.045C6.89467 252.874 14.9779 268.369 53.4947 280.653 81.236 289.497 117.994 294.375 157 294.375 196.001 294.375 232.759 289.497 260.51 280.653 299.023 268.369 307.101 252.873 307.101 242.045L307.101 117.75C307.101 114.137 304.178 111.21 300.566 111.21Z" fill="#DA4453" transform="matrix(1 0 0 1.44267 2778 1011)"/><path d="M307.466 111.21 294.845 111.21C268.1 95.0394 215.626 85.0452 157 85.0452 98.3794 85.0452 45.9003 95.0394 19.1557 111.21L6.54019 111.21C2.92788 111.21 0 114.137 0 117.75L0 137.376C0 152.957 16.8411 166.315 48.7031 176.012 77.7236 184.847 116.183 189.705 157 189.705 197.822 189.705 236.277 184.847 265.302 176.012 297.155 166.315 314 152.957 314 137.376L314 117.75C314 114.137 311.068 111.21 307.466 111.21Z" fill="#ED5564" transform="matrix(1 0 0 1.44267 2778 1011)"/><path d="M157 163.54C116.811 163.54 79.0269 158.777 50.6104 150.129 22.1933 141.481 6.54019 129.982 6.54019 117.75 6.54019 105.519 22.1933 94.0195 50.6104 85.3714 79.0269 76.7221 116.811 71.9599 157 71.9599 197.189 71.9599 234.973 76.7221 263.385 85.3708 291.807 94.0189 307.466 105.518 307.466 117.75 307.466 129.981 291.807 141.481 263.385 150.129 234.973 158.777 197.189 163.54 157 163.54Z" fill="#E6E9ED" transform="matrix(1 0 0 1.44267 2778 1011)"/><path d="M265.302 79.1133C236.277 70.2831 197.822 65.4203 157 65.4203 116.183 65.4203 77.7242 70.2831 48.7031 79.1133 16.8411 88.8108 0 102.174 0 117.75 0 133.332 16.8411 146.689 48.7031 156.387 77.7236 165.223 116.183 170.081 157 170.081 197.822 170.081 236.277 165.223 265.302 156.387 297.155 146.69 314 133.332 314 117.75 314 102.174 297.154 88.8108 265.302 79.1133ZM293.465 129.024C286.623 134.453 275.564 139.589 261.488 143.872 233.67 152.338 196.557 157 157 157 117.439 157 80.3301 152.338 52.5122 143.872 38.4353 139.589 27.3775 134.452 20.535 129.024 15.5906 125.104 13.0847 121.31 13.0847 117.75 13.0847 114.191 15.5906 110.401 20.535 106.477 27.3769 101.048 38.4353 95.917 52.5122 91.6289 80.3301 83.1623 117.438 78.5007 157 78.5007 196.557 78.5007 233.67 83.1629 261.488 91.6289 275.564 95.917 286.623 101.048 293.465 106.477 298.41 110.401 300.911 114.191 300.911 117.75 300.911 121.31 298.41 125.104 293.465 129.024Z" fill="#ED5564" transform="matrix(1 0 0 1.44267 2778 1011)"/><path d="M85.0402 308.433C81.4273 308.433 78.5001 305.501 78.5001 301.888L78.5001 157.973C78.5001 154.36 81.4273 151.433 85.0402 151.433 88.6532 151.433 91.5847 154.36 91.5847 157.973L91.5847 301.888C91.5847 305.501 88.6532 308.433 85.0402 308.433Z" fill="#434A54" transform="matrix(1 0 0 1.44267 2778 1011)"/><path d="M228.965 308.433C225.343 308.433 222.411 305.501 222.411 301.888L222.411 157.973C222.411 154.36 225.342 151.433 228.965 151.433 232.568 151.433 235.5 154.36 235.5 157.973L235.5 301.888C235.5 305.501 232.568 308.433 228.965 308.433Z" fill="#434A54" transform="matrix(1 0 0 1.44267 2778 1011)"/><path d="M137.486 116.935C136.063 116.935 134.63 116.47 133.427 115.517L2.4771 11.6667C-0.354485 9.42452-0.828563 5.30869 1.41855 2.4771 3.66076-0.354485 7.77659-0.828563 10.6082 1.41855L141.558 105.264C144.385 107.511 144.864 111.627 142.617 114.459 141.328 116.083 139.416 116.935 137.486 116.935Z" fill="#F4BE8E" transform="matrix(1 0 0 1.44267 2778 1011)"/><path d="M176.51 116.935C174.585 116.935 172.678 116.083 171.384 114.458 169.132 111.627 169.611 107.511 172.448 105.264L303.393 1.41855C306.219-0.828563 310.339-0.354485 312.582 2.4771 314.824 5.30869 314.355 9.42452 311.527 11.6667L180.573 115.517C179.366 116.471 177.938 116.935 176.51 116.935Z" fill="#F4BE8E" transform="matrix(1 0 0 1.44267 2778 1011)"/></g></g></g></g></svg>