<svg width="2571" height="1120" xmlns="http://www.w3.org/2000/svg" xmlns:xlink="http://www.w3.org/1999/xlink" xml:space="preserve" overflow="hidden"><defs><clipPath id="clip0"><rect x="1118" y="638" width="2571" height="1120"/></clipPath></defs><g clip-path="url(#clip0)" transform="translate(-1118 -638)"><path d="M1134.03 668.51C1137.61 668.51 1141.05 667.035 1143.58 664.409 1146.11 661.784 1147.53 658.223 1147.53 654.51 1147.53 650.797 1146.11 647.235 1143.58 644.61 1141.05 641.985 1137.61 640.51 1134.03 640.51 1130.45 640.51 1127.02 641.985 1124.49 644.61 1121.96 647.235 1120.53 650.797 1120.53 654.51 1120.53 658.223 1121.96 661.784 1124.49 664.409 1127.02 667.035 1130.45 668.51 1134.03 668.51Z" stroke="#1F77B4" stroke-width="4.58658" stroke-linejoin="round" stroke-miterlimit="10" fill="#4472C4" fill-rule="evenodd"/><path d="M1765.08 1490.58C1768.66 1490.58 1772.1 1489.1 1774.63 1486.48 1777.16 1483.85 1778.58 1480.29 1778.58 1476.58 1778.58 1472.86 1777.16 1469.3 1774.63 1466.68 1772.1 1464.05 1768.66 1462.58 1765.08 1462.58 1761.5 1462.58 1758.07 1464.05 1755.54 1466.68 1753.01 1469.3 1751.58 1472.86 1751.58 1476.58 1751.58 1480.29 1753.01 1483.85 1755.54 1486.48 1758.07 1489.1 1761.5 1490.58 1765.08 1490.58Z" stroke="#1F77B4" stroke-width="4.58658" stroke-linejoin="round" stroke-miterlimit="10" fill="#4472C4" fill-rule="evenodd"/><path d="M2399.64 1653.59C2403.35 1653.59 2406.91 1652.11 2409.54 1649.49 2412.16 1646.86 2413.64 1643.3 2413.64 1639.59 2413.64 1635.88 2412.16 1632.31 2409.54 1629.69 2406.91 1627.06 2403.35 1625.59 2399.64 1625.59 2395.92 1625.59 2392.36 1627.06 2389.74 1629.69 2387.11 1632.31 2385.64 1635.88 2385.64 1639.59 2385.64 1643.3 2387.11 1646.86 2389.74 1649.49 2392.36 1652.11 2395.92 1653.59 2399.64 1653.59Z" stroke="#1F77B4" stroke-width="4.58658" stroke-linejoin="round" stroke-miterlimit="10" fill="#4472C4" fill-rule="evenodd"/><path d="M3035.18 1715.59C3038.76 1715.59 3042.2 1714.17 3044.73 1711.64 3047.26 1709.1 3048.68 1705.67 3048.68 1702.09 3048.68 1698.51 3047.26 1695.08 3044.73 1692.54 3042.2 1690.01 3038.76 1688.59 3035.18 1688.59 3031.6 1688.59 3028.17 1690.01 3025.63 1692.54 3023.1 1695.08 3021.68 1698.51 3021.68 1702.09 3021.68 1705.67 3023.1 1709.1 3025.63 1711.64 3028.17 1714.17 3031.6 1715.59 3035.18 1715.59Z" stroke="#1F77B4" stroke-width="4.58658" stroke-linejoin="round" stroke-miterlimit="10" fill="#4472C4" fill-rule="evenodd"/><path d="M3672.23 1754.59C3675.81 1754.59 3679.24 1753.17 3681.78 1750.64 3684.31 1748.11 3685.73 1744.67 3685.73 1741.09 3685.73 1737.51 3684.31 1734.08 3681.78 1731.55 3679.24 1729.02 3675.81 1727.59 3672.23 1727.59 3668.65 1727.59 3665.22 1729.02 3662.68 1731.55 3660.15 1734.08 3658.73 1737.51 3658.73 1741.09 3658.73 1744.67 3660.15 1748.11 3662.68 1750.64 3665.22 1753.17 3668.65 1754.59 3672.23 1754.59Z" stroke="#1F77B4" stroke-width="4.58658" stroke-linejoin="round" stroke-miterlimit="10" fill="#4472C4" fill-rule="evenodd"/><path d="M3423.21 740.516C3426.79 740.516 3430.23 739.04 3432.76 736.415 3435.29 733.79 3436.71 730.229 3436.71 726.516 3436.71 722.803 3435.29 719.242 3432.76 716.616 3430.23 713.991 3426.79 712.516 3423.21 712.516 3419.63 712.516 3416.2 713.991 3413.67 716.616 3411.14 719.242 3409.71 722.803 3409.71 726.516 3409.71 730.229 3411.14 733.79 3413.67 736.415 3416.2 739.04 3419.63 740.516 3423.21 740.516Z" stroke="#1F77B4" stroke-width="4.58658" stroke-linejoin="round" stroke-miterlimit="10" fill="#4472C4" fill-rule="evenodd"/></g></svg>