<svg width="3091" height="1453" xmlns="http://www.w3.org/2000/svg" xmlns:xlink="http://www.w3.org/1999/xlink" xml:space="preserve" overflow="hidden"><defs><clipPath id="clip0"><rect x="654" y="542" width="3091" height="1453"/></clipPath></defs><g clip-path="url(#clip0)" transform="translate(-654 -542)"><path d="M1079 1732 1079 545" stroke="#FFFFFF" stroke-width="3.66919" stroke-linecap="square" stroke-linejoin="round" stroke-miterlimit="10" fill="none" fill-rule="evenodd"/><path d="M1079.03 1732.1 1079.03 1748.1" stroke="#FFFFFF" stroke-width="3.66919" stroke-linejoin="round" stroke-miterlimit="10" fill="none" fill-rule="evenodd"/><path d="M17.558 63.1425C17.558 65.2364 17.4633 65.3456 16.0431 65.3456 12.1134 60.705 6.14828 59.2364 0.498548 59.0332 0.198694 59.0332-0.30638 59.0332-0.416605 58.8455-0.511601 58.6427-0.511601 58.4395-0.511601 56.3455 2.61312 56.3455 7.86836 56.9393 11.9082 59.3301L11.9082 6.64225C11.9082 3.14253 11.703 1.93922 3.02356 1.93922L-0.00652645 1.93922-0.00652645-0.654425C4.83827-0.560731 9.88829-0.467036 14.7331-0.467036 19.5779-0.467036 24.6279-0.560731 29.4887-0.654425L29.4887 1.93922 26.4586 1.93922C17.7632 1.93922 17.558 3.03304 17.558 6.64225L17.558 63.1425Z" stroke="#FFFFFF" stroke-width="0.0158793" stroke-linejoin="round" stroke-miterlimit="10" fill="#FFFFFF" fill-rule="evenodd" transform="matrix(1 0 0 -1 1064.5 1834.5)"/><path d="M1566 1732 1566 545" stroke="#FFFFFF" stroke-width="3.66919" stroke-linecap="square" stroke-linejoin="round" stroke-miterlimit="10" fill="none" fill-rule="evenodd"/><path d="M1566.06 1732.1 1566.06 1748.1" stroke="#FFFFFF" stroke-width="3.66919" stroke-linejoin="round" stroke-miterlimit="10" fill="none" fill-rule="evenodd"/><path d="M37.542 14.8141 35.7266 14.8141C34.7161 7.73607 33.8952 6.53312 33.5006 5.93936 32.9953 5.14242 25.7173 5.14242 24.2965 5.14242L4.9098 5.14242C8.54064 9.03308 15.6134 16.1111 24.2019 24.283 30.3587 30.0644 37.542 36.8456 37.542 46.7363 37.542 58.5332 28.038 65.3456 17.4291 65.3456 6.31462 65.3456-0.458117 55.6426-0.458117 46.6426-0.458117 42.7361 2.47848 42.2361 3.69396 42.2361 4.7045 42.2361 7.73576 42.8298 7.73576 46.3299 7.73576 49.4394 5.09914 50.3455 3.69396 50.3455 3.07842 50.3455 2.47848 50.2364 2.06788 50.0332 3.99393 58.5332 9.85116 62.7361 16.024 62.7361 24.8018 62.7361 30.564 55.8455 30.564 46.7363 30.564 38.0485 25.4174 30.5645 19.6552 24.0798L-0.458117 1.64234-0.458117-0.654425 35.1107-0.654425 37.542 14.8141Z" stroke="#FFFFFF" stroke-width="0.0158793" stroke-linejoin="round" stroke-miterlimit="10" fill="#FFFFFF" fill-rule="evenodd" transform="matrix(1 0 0 -1 1547.5 1834.5)"/><path d="M2053 1732 2053 545" stroke="#FFFFFF" stroke-width="3.66919" stroke-linecap="square" stroke-linejoin="round" stroke-miterlimit="10" fill="none" fill-rule="evenodd"/><path d="M2053.1 1732.1 2053.1 1748.1" stroke="#FFFFFF" stroke-width="3.66919" stroke-linejoin="round" stroke-miterlimit="10" fill="none" fill-rule="evenodd"/><path d="M18.2866 35.3688C27.1466 35.3688 31.0326 27.5093 31.0326 18.4625 31.0326 6.39996 24.6596 1.75938 18.8926 1.75938 13.6231 1.75938 5.05841 4.38426 2.36921 12.1656 2.86669 11.9624 3.36418 11.9624 3.86166 11.9624 6.25552 11.9624 8.04296 13.5563 8.04296 16.1654 8.04296 19.0563 5.85124 20.3687 3.86166 20.3687 2.18279 20.3687-0.412844 19.5563-0.412844 15.8531-0.412844 6.60314 8.54044-0.631452 19.0948-0.631452 30.1308-0.631452 38.587 8.11877 38.587 18.353 38.587 28.2125 30.6283 35.3688 21.1775 36.4627 28.7319 38.0407 36.0067 44.7437 36.0067 53.7596 36.0067 61.6188 28.1413 67.369 19.188 67.369 10.1415 67.369 2.18279 61.7125 2.18279 53.6659 2.18279 50.1658 4.76306 49.5562 6.05338 49.5562 8.15188 49.5562 9.93933 50.8532 9.93933 53.4627 9.93933 56.0563 8.15188 57.3688 6.05338 57.3688 5.66482 57.3688 5.16734 57.3688 4.76306 57.1656 7.6544 63.8531 15.5042 65.0564 18.9858 65.0564 22.4679 65.0564 29.043 63.3376 29.043 53.6659 29.043 50.8532 28.6387 45.9158 25.2503 41.5875 22.2657 37.7593 18.8926 37.5561 15.6127 37.2592 15.1156 37.2592 12.815 37.0564 12.4264 37.0564 11.7268 36.9624 11.3229 36.8687 11.3229 36.1658 11.3229 35.4625 11.4314 35.3688 13.421 35.3688L18.2866 35.3688Z" stroke="#FFFFFF" stroke-width="0.0158793" stroke-linejoin="round" stroke-miterlimit="10" fill="#FFFFFF" fill-rule="evenodd" transform="matrix(1 0 0 -1 2033.5 1836.5)"/><path d="M2539 1732 2539 545" stroke="#FFFFFF" stroke-width="3.66919" stroke-linecap="square" stroke-linejoin="round" stroke-miterlimit="10" fill="none" fill-rule="evenodd"/><path d="M2539.16 1732.1 2539.16 1748.1" stroke="#FFFFFF" stroke-width="3.66919" stroke-linejoin="round" stroke-miterlimit="10" fill="none" fill-rule="evenodd"/><path d="M31.3686 64.1311C31.3686 66.2246 31.2741 66.3341 29.4686 66.3341L-0.378774 18.9277-0.378774 16.334 25.5435 16.334 25.5435 6.52163C25.5435 2.92786 25.3393 1.92773 18.3053 1.92773L16.4056 1.92773 16.4056-0.665911C19.6241-0.478523 25.0409-0.478523 28.4636-0.478523 31.8708-0.478523 37.3035-0.478523 40.522-0.665911L40.522 1.92773 38.6065 1.92773C31.5725 1.92773 31.3686 2.92786 31.3686 6.52163L31.3686 16.334 41.6212 16.334 41.6212 18.9277 31.3686 18.9277 31.3686 64.1311ZM25.8418 57.506 25.8418 18.9277 1.63089 18.9277 25.8418 57.506Z" stroke="#FFFFFF" stroke-width="0.0158793" stroke-linejoin="round" stroke-miterlimit="10" fill="#FFFFFF" fill-rule="evenodd" transform="matrix(1 0 0 -1 2518.5 1834.5)"/><path d="M3026 1732 3026 545" stroke="#FFFFFF" stroke-width="3.66919" stroke-linecap="square" stroke-linejoin="round" stroke-miterlimit="10" fill="none" fill-rule="evenodd"/><path d="M3026.21 1732.1 3026.21 1748.1" stroke="#FFFFFF" stroke-width="3.66919" stroke-linejoin="round" stroke-miterlimit="10" fill="none" fill-rule="evenodd"/><path d="M7.04593 59.9624C8.05649 59.5564 12.1926 58.2594 16.4398 58.2594 25.8333 58.2594 30.98 63.2593 33.9162 66.0565 33.9162 66.8531 33.9162 67.369 33.3163 67.369 33.206 67.369 33.0007 67.369 32.1955 66.9626 28.6593 65.4628 24.5228 64.3689 19.4707 64.3689 16.4398 64.3689 11.8927 64.7283 6.93567 66.8531 5.83044 67.369 5.62514 67.369 5.53047 67.369 5.02519 67.369 4.91492 67.2595 4.91492 65.275L4.91492 36.2282C4.91492 34.3845 4.91492 33.8686 5.92511 33.8686 6.43039 33.8686 6.63569 34.0718 7.14097 34.7905 10.3772 39.4157 14.8137 41.3689 19.8654 41.3689 23.4019 41.3689 30.98 39.103 30.98 21.5717 30.98 18.353 30.98 12.5562 27.9487 7.96225 25.4227 3.85297 21.4915 1.75938 17.15 1.75938 10.4719 1.75938 3.69907 6.35293 1.88363 14.056 2.29424 13.9623 3.09912 13.7591 3.50973 13.7591 4.81989 13.7591 7.34591 14.4624 7.34591 17.5561 7.34591 20.2592 5.41984 21.3688 3.50973 21.3688 1.17305 21.3688-0.342412 19.9623-0.342412 17.1655-0.342412 8.46231 6.63569-0.631452 17.3393-0.631452 27.7593-0.631452 37.6581 8.25913 37.6581 21.1657 37.6581 33.4626 29.7801 42.9624 19.976 42.9624 14.8137 42.9624 10.4719 41.0562 7.04593 37.3687L7.04593 59.9624Z" stroke="#FFFFFF" stroke-width="0.0158793" stroke-linejoin="round" stroke-miterlimit="10" fill="#FFFFFF" fill-rule="evenodd" transform="matrix(1 0 0 -1 3007.5 1836.5)"/><path d="M3513 1732 3513 545" stroke="#FFFFFF" stroke-width="3.66919" stroke-linecap="square" stroke-linejoin="round" stroke-miterlimit="10" fill="none" fill-rule="evenodd"/><path d="M3513.25 1732.1 3513.25 1748.1" stroke="#FFFFFF" stroke-width="3.66919" stroke-linejoin="round" stroke-miterlimit="10" fill="none" fill-rule="evenodd"/><path d="M6.46143 35.7124C6.46143 59.369 17.605 65.0564 24.0707 65.0564 26.1685 65.0564 31.2356 64.6346 33.2249 60.4625 31.6394 60.4625 28.6553 60.4625 28.6553 56.9628 28.6553 54.2596 30.8313 53.369 32.23 53.369 33.1317 53.369 35.8048 53.7596 35.8048 57.1656 35.8048 63.6657 30.8313 67.369 23.9775 67.369 12.1344 67.369-0.299236 54.6656-0.299236 32.7906-0.299236 5.38439 10.9375-0.631452 18.8951-0.631452 28.5467-0.631452 37.7009 8.10297 37.7009 21.6029 37.7009 34.1968 29.6501 43.3688 19.5011 43.3688 13.4242 43.3688 8.94817 39.3374 6.46143 32.2906L6.46143 35.7124ZM18.8951 1.75938C6.66354 1.75938 6.66354 20.3063 6.66354 24.025 6.66354 31.275 10.0516 41.7595 19.2993 41.7595 20.9933 41.7595 25.8579 41.7595 29.1527 34.8063 30.9403 30.8844 30.9403 26.7435 30.9403 21.7124 30.9403 16.2749 30.9403 12.2435 28.842 8.21246 26.666 4.07159 23.4801 1.75938 18.8951 1.75938Z" stroke="#FFFFFF" stroke-width="0.0158793" stroke-linejoin="round" stroke-miterlimit="10" fill="#FFFFFF" fill-rule="evenodd" transform="matrix(1 0 0 -1 3494.5 1836.5)"/><path d="M23.8835 26.3231 3.59232 46.1377C2.37145 47.3379 2.16566 47.5406 1.35709 47.5406 0.342368 47.5406-0.671988 46.6366-0.671988 45.5453-0.671988 44.8436-0.465839 44.6409 0.643579 43.5495L20.9351 23.5327 0.643579 3.53117C-0.465839 2.44019-0.671988 2.23747-0.671988 1.53582-0.671988 0.444485 0.342368-0.459528 1.35709-0.459528 2.16566-0.459528 2.37145-0.256806 3.59232 0.943412L23.7727 20.7579 44.7774 0.13288C44.9835 0.0393984 45.6967-0.459528 46.2991-0.459528 47.52-0.459528 48.3282 0.444485 48.3282 1.53582 48.3282 1.73854 48.3282 2.12823 48.027 2.62716 47.9162 2.82988 31.794 18.466 26.7211 23.5327L45.2847 41.7569C45.7917 42.3493 47.3138 43.6434 47.8212 44.2512 47.9162 44.4382 48.3282 44.8436 48.3282 45.5453 48.3282 46.6366 47.52 47.5406 46.2991 47.5406 45.4905 47.5406 45.0786 47.1352 43.9688 46.0442L23.8835 26.3231Z" stroke="#FFFFFF" stroke-width="0.0158793" stroke-linejoin="round" stroke-miterlimit="10" fill="#FFFFFF" fill-rule="evenodd" transform="matrix(1 0 0 -1 3544.5 1946.5)"/><path d="M17.7541 63.1508C17.7541 65.2443 17.6595 65.3538 16.2393 65.3538 12.3096 60.7133 6.34443 59.2443 0.694704 59.0411 0.39485 59.0411-0.110224 59.0411-0.220449 58.8537-0.315082 58.6506-0.315082 58.4474-0.315082 56.3538 2.80964 56.3538 8.06451 56.9475 12.1047 59.338L12.1047 6.65051C12.1047 3.15043 11.8995 1.94748 3.21971 1.94748L0.18963 1.94748 0.18963-0.646527C5.03443-0.552474 10.0844-0.45878 14.9292-0.45878 19.774-0.45878 24.8241-0.552474 29.6848-0.646527L29.6848 1.94748 26.6547 1.94748C17.9593 1.94748 17.7541 3.0413 17.7541 6.65051L17.7541 63.1508Z" stroke="#FFFFFF" stroke-width="0.0158793" stroke-linejoin="round" stroke-miterlimit="10" fill="#FFFFFF" fill-rule="evenodd" transform="matrix(1 0 0 -1 3606.5 1938.5)"/><path d="M37.7045 33.2207C37.7045 39.3457 37.6113 49.7989 33.4306 57.8301 29.7472 64.8615 23.8721 67.3769 18.7123 67.3769 13.9256 67.3769 7.86406 65.1584 4.08754 57.9396 0.108554 50.3927-0.295308 41.0487-0.295308 33.2207-0.295308 27.4863-0.186755 18.7519 2.89059 11.1113 7.16453 0.767506 14.8268-0.623195 18.7123-0.623195 23.2819-0.623195 30.2447 1.26721 34.3165 10.8144 37.3006 17.7517 37.7045 25.877 37.7045 33.2207ZM18.7123 0.970332C12.3401 0.970332 8.56359 6.50191 7.16453 14.1267 6.07685 20.0643 6.07685 28.705 6.07685 34.3299 6.07685 42.0642 6.07685 48.4864 7.36664 54.6114 9.26276 63.1581 14.8268 65.7675 18.7123 65.7675 22.7845 65.7675 28.0532 63.049 29.9493 54.8146 31.2391 49.0956 31.3323 42.3611 31.3323 34.3299 31.3323 27.7986 31.3323 19.7516 30.1511 13.8298 28.0532 2.87689 22.1938 0.970332 18.7123 0.970332Z" stroke="#FFFFFF" stroke-width="0.0158793" stroke-linejoin="round" stroke-miterlimit="10" fill="#FFFFFF" fill-rule="evenodd" transform="matrix(1 0 0 -1 3629.5 1940.5)"/><path d="M27.6626 44.6619 27.6626 46.2265 11.4153 46.2265C3.33506 46.2265 3.19465 47.0033 2.91384 48.357L1.67143 48.357-0.337903 35.2193 0.915139 35.2193C1.12043 36.5729 1.60655 40.1904 2.42772 41.5332 2.84895 42.0988 7.95862 42.0988 9.13614 42.0988L24.346 42.0988 16.6764 30.4036C11.5557 22.5364 8.03415 11.9064 8.03415 2.61888 8.03415 1.7645 8.03415-0.643158 10.519-0.643158 13.014-0.643158 13.014 1.7645 13.014 2.68553L13.014 5.94793C13.014 17.5765 14.9479 25.2328 18.1237 30.1151L27.6626 44.6619Z" stroke="#FFFFFF" stroke-width="0.0108268" stroke-linejoin="round" stroke-miterlimit="10" fill="#FFFFFF" fill-rule="evenodd" transform="matrix(1 0 0 -1 3676.5 1898.5)"/><path d="M952 1312 3742 1312" stroke="#FFFFFF" stroke-width="3.66919" stroke-linecap="square" stroke-linejoin="round" stroke-miterlimit="10" fill="none" fill-rule="evenodd"/><path d="M952.025 1312.06 936.025 1312.06" stroke="#FFFFFF" stroke-width="3.66919" stroke-linejoin="round" stroke-miterlimit="10" fill="none" fill-rule="evenodd"/><path d="M36.4958 15 34.7281 15C33.7442 7.81466 32.9449 6.59312 32.5607 5.99036 32.0687 5.18171 24.9821 5.18171 23.5987 5.18171L4.72201 5.18171C8.25769 9.13132 15.1443 16.3166 23.5066 24.6123 29.5018 30.481 36.4958 37.3653 36.4958 47.4058 36.4958 59.3814 27.2418 66.2971 16.912 66.2971 6.09023 66.2971-0.504693 56.4467-0.504693 47.3103-0.504693 43.3451 2.35465 42.8374 3.53815 42.8374 4.52211 42.8374 7.47363 43.4402 7.47363 46.9933 7.47363 50.1499 4.90637 51.0697 3.53815 51.0697 2.93881 51.0697 2.35465 50.9586 1.95485 50.7527 3.83023 59.3814 9.53337 63.6481 15.5438 63.6481 24.0907 63.6481 29.7013 56.653 29.7013 47.4058 29.7013 38.5864 24.6901 30.9886 19.0795 24.4061L-0.504693 1.6286-0.504693-0.70297 34.1284-0.70297 36.4958 15Z" stroke="#FFFFFF" stroke-width="0.0158793" stroke-linejoin="round" stroke-miterlimit="10" fill="#FFFFFF" fill-rule="evenodd" transform="matrix(1 0 0 -1 786.5 1347.5)"/><path d="M38.4769 33.1744C38.4769 39.2993 38.3812 49.7526 34.0904 57.7838 30.3101 64.8152 24.2803 67.3306 18.9846 67.3306 14.0719 67.3306 7.85083 65.112 3.97489 57.8932-0.108846 50.3463-0.52334 41.0024-0.52334 33.1744-0.52334 27.44-0.411929 18.7055 2.74644 11.0649 7.13289 0.721198 14.9969-0.669504 18.9846-0.669504 23.6742-0.669504 30.8206 1.2209 34.9997 10.7681 38.0624 17.7054 38.4769 25.8306 38.4769 33.1744ZM18.9846 0.924023C12.4447 0.924023 8.56878 6.4556 7.13289 14.0804 6.01658 20.018 6.01658 28.6587 6.01658 34.2836 6.01658 42.0183 6.01658 48.4401 7.34032 54.5651 9.28636 63.1118 14.9969 65.7212 18.9846 65.7212 23.164 65.7212 28.5715 63.0027 30.5175 54.7683 31.8413 49.0493 31.9369 42.3148 31.9369 34.2836 31.9369 27.7523 31.9369 19.7057 30.7246 13.7835 28.5715 2.83058 22.5579 0.924023 18.9846 0.924023Z" stroke="#FFFFFF" stroke-width="0.0158793" stroke-linejoin="round" stroke-miterlimit="10" fill="#FFFFFF" fill-rule="evenodd" transform="matrix(1 0 0 -1 837.5 1348.5)"/><path d="M37.4906 33.1744C37.4906 39.2993 37.397 49.7526 33.2163 57.7838 29.5329 64.8152 23.6581 67.3306 18.4978 67.3306 13.7111 67.3306 7.64953 65.112 3.87297 57.8932-0.106055 50.3463-0.509921 41.0024-0.509921 33.1744-0.509921 27.44-0.401366 18.7055 2.67601 11.0649 6.95035 0.721198 14.6124-0.669504 18.4978-0.669504 23.0675-0.669504 30.0303 1.2209 34.1022 10.7681 37.0864 17.7054 37.4906 25.8306 37.4906 33.1744ZM18.4978 0.924023C12.1256 0.924023 8.34906 6.4556 6.95035 14.0804 5.8623 20.018 5.8623 28.6587 5.8623 34.2836 5.8623 42.0183 5.8623 48.4401 7.1521 54.5651 9.04824 63.1118 14.6124 65.7212 18.4978 65.7212 22.5701 65.7212 27.8389 63.0027 29.735 54.7683 31.0248 49.0493 31.118 42.3148 31.118 34.2836 31.118 27.7523 31.118 19.7057 29.9371 13.7835 27.8389 2.83058 21.9794 0.924023 18.4978 0.924023Z" stroke="#FFFFFF" stroke-width="0.0158793" stroke-linejoin="round" stroke-miterlimit="10" fill="#FFFFFF" fill-rule="evenodd" transform="matrix(1 0 0 -1 836.5 906.5)"/><path d="M952 871 3742 871" stroke="#FFFFFF" stroke-width="3.66919" stroke-linecap="square" stroke-linejoin="round" stroke-miterlimit="10" fill="none" fill-rule="evenodd"/><path d="M952.025 871.027 936.025 871.027" stroke="#FFFFFF" stroke-width="3.66919" stroke-linejoin="round" stroke-miterlimit="10" fill="none" fill-rule="evenodd"/><path d="M31.9756 64.0582C31.9756 66.1521 31.8792 66.2612 30.0307 66.2612L-0.527768 18.8552-0.527768 16.2612 26.012 16.2612 26.012 6.44875C26.012 2.85498 25.803 1.85522 18.6015 1.85522L16.6563 1.85522 16.6563-0.738785C19.9518-0.551037 25.4976-0.551037 29.0017-0.551037 32.49-0.551037 38.0521-0.551037 41.3472-0.738785L41.3472 1.85522 39.3861 1.85522C32.1846 1.85522 31.9756 2.85498 31.9756 6.44875L31.9756 16.2612 42.4726 16.2612 42.4726 18.8552 31.9756 18.8552 31.9756 64.0582ZM26.3175 57.4332 26.3175 18.8552 1.53012 18.8552 26.3175 57.4332Z" stroke="#FFFFFF" stroke-width="0.0158793" stroke-linejoin="round" stroke-miterlimit="10" fill="#FFFFFF" fill-rule="evenodd" transform="matrix(1 0 0 -1 783.5 905.5)"/><path d="M37.4899 33.1399C37.4899 39.2649 37.3967 49.7181 33.216 57.7493 29.5326 64.7807 23.6575 67.2961 18.4977 67.2961 13.711 67.2961 7.64945 65.0776 3.87293 57.8588-0.106054 50.3119-0.509916 40.9679-0.509916 33.1399-0.509916 27.4055-0.401362 18.6711 2.67599 11.0301 6.94993 0.686376 14.6122-0.703966 18.4977-0.703966 23.0669-0.703966 30.03 1.18644 34.1019 10.7336 37.086 17.671 37.4899 25.7958 37.4899 33.1399ZM18.4977 0.889561C12.1255 0.889561 8.34898 6.42078 6.94993 14.0459 5.86225 19.9835 5.86225 28.6243 5.86225 34.2492 5.86225 41.9835 5.86225 48.4053 7.15203 54.5306 9.04815 63.0773 14.6122 65.6868 18.4977 65.6868 22.5698 65.6868 27.8386 62.9682 29.7347 54.7335 31.0245 49.0149 31.1177 42.2803 31.1177 34.2492 31.1177 27.7178 31.1177 19.6709 29.9365 13.7491 27.8386 2.79576 21.9792 0.889561 18.4977 0.889561Z" stroke="#FFFFFF" stroke-width="0.0158793" stroke-linejoin="round" stroke-miterlimit="10" fill="#FFFFFF" fill-rule="evenodd" transform="matrix(1 0 0 -1 887.5 1350.5)"/><path d="M37.4902 33.6273C37.4902 39.8423 37.3967 50.4493 33.216 58.5986 29.5326 65.7334 23.6579 68.2858 18.4977 68.2858 13.711 68.2858 7.64945 66.0346 3.87293 58.7097-0.106054 51.0518-0.509916 41.5704-0.509916 33.6273-0.509916 27.8085-0.401362 18.9457 2.67599 11.1923 6.95028 0.69647 14.6122-0.714319 18.4977-0.714319 23.0673-0.714319 30.03 1.20389 34.1019 10.8915 37.086 17.9308 37.4902 26.1752 37.4902 33.6273ZM18.4977 0.902643C12.1255 0.902643 8.34898 6.5152 6.95028 14.2525 5.86225 20.2774 5.86225 29.0452 5.86225 34.7528 5.86225 42.6009 5.86225 49.1172 7.15203 55.3326 9.04815 64.005 14.6122 66.6528 18.4977 66.6528 22.5698 66.6528 27.8386 63.8942 29.7347 55.5384 31.0245 49.7357 31.1177 42.9021 31.1177 34.7528 31.1177 28.1255 31.1177 19.9601 29.9368 13.9513 27.8386 2.83688 21.9792 0.902643 18.4977 0.902643Z" stroke="#FFFFFF" stroke-width="0.0158793" stroke-linejoin="round" stroke-miterlimit="10" fill="#FFFFFF" fill-rule="evenodd" transform="matrix(1 0 0 -1 887.5 905.5)"/><path d="M31.5157 32.4582C31.1243 30.8489 30.9207 30.4583 29.6213 28.9581 25.5033 23.6768 21.2915 21.7863 18.1912 21.7863 14.8873 21.7863 11.7715 24.3646 11.7715 31.2549 11.7715 36.5363 14.7776 47.7082 16.9853 52.2084 19.8978 57.7863 24.4072 61.771 28.6191 61.771 35.2269 61.771 36.5263 53.5991 36.5263 53.0053L36.2288 51.5989 31.5157 32.4582ZM37.7321 57.1925C36.4324 60.0834 33.6296 63.7863 28.6191 63.7863 17.6901 63.7863 5.25802 50.1145 5.25802 35.2396 5.25802 24.8643 11.5834 19.7861 17.9876 19.7861 23.2956 19.7861 28.0086 23.9736 29.8091 25.9739L27.6172 17.0363C26.2077 11.6612 25.6131 9.20793 21.9958 5.7861 17.8937 1.7863 14.0887 1.7863 11.8809 1.7863 8.87489 1.7863 6.36963 1.97369 3.86437 2.75484 7.07401 3.63004 7.87264 6.37985 7.87264 7.45824 7.87264 9.02054 6.66714 10.5832 4.45939 10.5832 2.06349 10.5832-0.551128 8.62996-0.551128 5.39552-0.551128 1.37993 3.56686-0.213954 12.0845-0.213954 25.0022-0.213954 31.7194 7.94251 33.0191 13.2239L44.1518 57.6926C44.4493 58.8801 44.4493 59.0833 44.4493 59.2865 44.4493 60.6772 43.3373 61.7864 41.8343 61.7864 39.4387 61.7864 38.0296 59.7865 37.7321 57.0988L37.7321 57.1925Z" stroke="#FFFFFF" stroke-width="0.0158793" stroke-linejoin="round" stroke-miterlimit="10" fill="#FFFFFF" fill-rule="evenodd" transform="matrix(-1.83697e-16 -1 -1 1.83697e-16 758.5 1222.5)"/><path d="M26.4753 23.2116C26.4753 27.535 26.409 34.9137 23.4387 40.5831 20.8214 45.5461 16.6473 47.3221 12.9807 47.3221 9.57974 47.3221 5.27267 45.7557 2.58939 40.6602-0.237772 35.3329-0.524838 28.7372-0.524838 23.2116-0.524838 19.1637-0.447635 12.9981 1.73907 7.60459 4.77574 0.303358 10.2202-0.678393 12.9807-0.678393 16.2276-0.678393 21.1748 0.656311 24.0679 7.39536 26.1883 12.2922 26.4753 18.0277 26.4753 23.2116ZM12.9807 0.446712C8.45323 0.446712 5.76959 4.35091 4.77574 9.73353 4.00298 13.9248 4.00298 20.0238 4.00298 23.9946 4.00298 29.4544 4.00298 33.9874 4.91927 38.3108 6.26652 44.3439 10.2202 46.1861 12.9807 46.1861 15.8742 46.1861 19.6176 44.2668 20.9649 38.4541 21.8815 34.4174 21.9479 29.6636 21.9479 23.9946 21.9479 19.3842 21.9479 13.704 21.1084 9.52393 19.6176 1.79228 15.4545 0.446712 12.9807 0.446712Z" stroke="#FFFFFF" stroke-width="0.0108268" stroke-linejoin="round" stroke-miterlimit="10" fill="#FFFFFF" fill-rule="evenodd" transform="matrix(-1.83697e-16 -1 -1 1.83697e-16 767.5 1164.5)"/><path d="M12.6117-0.511909 12.6117 2.98781 3.13729 2.98781 3.13729 95.9726 12.6117 95.9726 12.6117 99.4881-0.388364 99.4881-0.388364-0.511909 12.6117-0.511909Z" stroke="#FFFFFF" stroke-width="0.0158793" stroke-linejoin="round" stroke-miterlimit="10" fill="#FFFFFF" fill-rule="evenodd" transform="matrix(-1.83697e-16 -1 -1 1.83697e-16 763.5 1116.5)"/><path d="M68.9975 59.9977C69.9013 63.3728 70.104 64.3726 77.18 64.3726 78.9722 64.3726 79.9699 64.3726 79.9699 66.1696 79.9699 67.2789 79.0815 67.2789 78.4738 67.2789 76.6811 67.2789 74.5927 67.0757 72.6912 67.0757L60.9239 67.0757C59.0224 67.0757 56.934 67.2789 55.0325 67.2789 54.331 67.2789 53.1464 67.2789 53.1464 65.3727 53.1464 64.3726 53.8321 64.3726 55.7336 64.3726 61.7188 64.3726 61.7188 63.5756 61.7188 62.4822 61.7188 62.279 61.7188 61.6852 61.3135 60.2008L55.2348 36.1695 25.1072 36.1695 31.0924 59.9977C31.9962 63.3728 32.1989 64.3726 39.2748 64.3726 41.0675 64.3726 42.0648 64.3726 42.0648 66.1696 42.0648 67.2789 41.1763 67.2789 40.5686 67.2789 38.776 67.2789 36.6876 67.0757 34.7861 67.0757L23.0187 67.0757C21.1173 67.0757 19.0288 67.2789 17.1273 67.2789 16.4258 67.2789 15.2413 67.2789 15.2413 65.3727 15.2413 64.3726 15.927 64.3726 17.8285 64.3726 23.8137 64.3726 23.8137 63.5756 23.8137 62.4822 23.8137 62.279 23.8137 61.6852 23.4083 60.2008L9.94216 6.65408C9.05373 3.16945 8.85105 2.16968 1.96201 2.16968-0.32909 2.16968-1.03024 2.16968-1.03024 0.278929-1.03024-0.721194 0.0762743-0.721194 0.372419-0.721194 2.16469-0.721194 4.26886-0.533446 6.15459-0.533446L17.922-0.533446C19.8235-0.533446 21.9122-0.721194 23.8137-0.721194 24.6087-0.721194 25.7152-0.721194 25.7152 1.16956 25.7152 2.16968 24.811 2.16968 23.3149 2.16968 17.2362 2.16968 17.2362 2.96626 17.2362 3.96639 17.2362 4.06008 17.2362 4.76332 17.4235 5.56026L24.3125 33.279 54.5336 33.279C52.8348 26.7007 47.7538 5.85714 47.5511 5.26339 46.46 2.26338 44.8547 2.26338 38.9787 2.16968 37.7787 2.16968 36.8745 2.16968 36.8745 0.278929 36.8745-0.721194 37.9814-0.721194 38.2775-0.721194 40.0698-0.721194 42.174-0.533446 44.0597-0.533446L55.8271-0.533446C57.7286-0.533446 59.8173-0.721194 61.7188-0.721194 62.5135-0.721194 63.6203-0.721194 63.6203 1.16956 63.6203 2.16968 62.7161 2.16968 61.22 2.16968 55.1413 2.16968 55.1413 2.96626 55.1413 3.96639 55.1413 4.06008 55.1413 4.76332 55.3286 5.56026L68.9975 59.9977Z" stroke="#FFFFFF" stroke-width="0.0158793" stroke-linejoin="round" stroke-miterlimit="10" fill="#FFFFFF" fill-rule="evenodd" transform="matrix(-1.83697e-16 -1 -1 1.83697e-16 738.5 1098.5)"/><path d="M7.89078 8.16149C12.2182 13.2081 15.7429 16.4271 20.7785 21.0835 26.8214 26.4582 29.4336 29.0364 30.8498 30.599 37.8996 37.6147 41.4247 42.9585 41.4247 43.7554 41.4247 44.5678 40.6221 44.5678 40.4174 44.5678 39.7092 44.5678 39.5049 44.1614 39.0013 43.4586 36.4834 39.1615 34.0759 37.5676 31.4478 37.5676 29.3393 37.5676 28.2376 38.1147 26.3178 40.3645 24.2092 42.8648 22.4937 44.5678 19.567 44.5678 12.2182 44.5678 7.78051 35.9583 7.78051 33.8023 7.78051 33.4896 7.89078 32.8646 8.78742 32.8646 9.60597 32.8646 9.70033 33.2864 9.99933 34.0051 11.7145 37.8645 16.5455 38.3021 18.4653 38.3021 20.5739 38.3021 22.5884 37.8645 24.7125 37.1616 28.5366 35.5523 30.1415 35.5523 31.1488 35.5523 31.8571 35.5523 32.266 35.5523 32.7696 35.6614 29.4336 31.6304 24.0046 26.6614 19.4726 22.4271L9.29106 12.8021C3.15414 6.50514-0.575584 1.06762-0.575584 0.364368-0.575584-0.244827-0.071948-0.432575 0.54196-0.432575 1.1396-0.432575 1.23432-0.338522 1.94224 0.864433 3.56305 3.36439 6.77324 6.56761 10.503 6.56761 12.6271 6.56761 13.6343 6.13 15.6485 3.86446 17.5528 1.66138 19.268-0.432575 22.4937-0.432575 32.3603-0.432575 37.994 11.8644 37.994 14.2552 37.994 14.6613 37.8996 15.2862 36.8923 15.2862 36.0901 15.2862 35.9798 14.8644 35.6808 13.8334 33.462 7.75512 27.5293 5.81769 23.5953 5.81769 21.4868 5.81769 19.4726 6.25493 17.3482 6.95818 13.3198 8.5675 12.2182 8.5675 10.9119 8.5675 9.90497 8.5675 8.78742 8.5675 7.89078 8.16149Z" stroke="#FFFFFF" stroke-width="0.0158793" stroke-linejoin="round" stroke-miterlimit="10" fill="#FFFFFF" fill-rule="evenodd" transform="matrix(-1.83697e-16 -1 -1 1.83697e-16 739.5 1025.5)"/><path d="M12.8241 99.4888-0.175589 99.4888-0.175589 95.973 9.29461 95.973 9.29461 2.98853-0.175589 2.98853-0.175589-0.51155 12.8241-0.51155 12.8241 99.4888Z" stroke="#FFFFFF" stroke-width="0.0158793" stroke-linejoin="round" stroke-miterlimit="10" fill="#FFFFFF" fill-rule="evenodd" transform="matrix(-1.83697e-16 -1 -1 1.83697e-16 754.5 968.5)"/><path d="M952 1732 952 545" stroke="#FFFFFF" stroke-width="3.66919" stroke-linecap="square" stroke-miterlimit="8" fill="none" fill-rule="evenodd"/><path d="M3742 1732 3742 545" stroke="#FFFFFF" stroke-width="3.66919" stroke-linecap="square" stroke-miterlimit="8" fill="none" fill-rule="evenodd"/><path d="M952 1732 3742 1732" stroke="#FFFFFF" stroke-width="3.66919" stroke-linecap="square" stroke-miterlimit="8" fill="none" fill-rule="evenodd"/><path d="M952 545 3742 545" stroke="#FFFFFF" stroke-width="3.66919" stroke-linecap="square" stroke-miterlimit="8" fill="none" fill-rule="evenodd"/><path d="M3246.69 766.5 3651.31 766.5C3664.77 766.5 3671.5 759.769 3671.5 746.309L3671.5 615.691C3671.5 602.23 3664.77 595.5 3651.31 595.5L3246.69 595.5C3233.23 595.5 3226.5 602.23 3226.5 615.691L3226.5 746.309C3226.5 759.769 3233.23 766.5 3246.69 766.5Z" stroke="#CCCCCC" stroke-width="4.58658" stroke-miterlimit="8" stroke-opacity="0.8" fill="none" fill-rule="evenodd"/><path d="M31.7409 32.4132C31.3492 30.8038 31.1459 30.4133 29.8462 28.9131 25.7282 23.6321 21.5163 21.7414 18.416 21.7414 15.1121 21.7414 11.9964 24.3196 11.9964 31.2102 11.9964 36.4912 15.0028 47.663 17.2105 52.1632 20.1226 57.7415 24.632 61.7258 28.8439 61.7258 35.4517 61.7258 36.7511 53.5539 36.7511 52.9602L36.4536 51.5537 31.7409 32.4132ZM37.957 57.1477C36.6572 60.0382 33.8544 63.7415 28.8439 63.7415 17.9149 63.7415 5.48286 50.0693 5.48286 35.1945 5.48286 24.8196 11.8086 19.7415 18.2124 19.7415 23.5204 19.7415 28.2334 23.929 30.034 25.9289L27.842 16.9913C26.4329 11.6163 25.8379 9.16336 22.221 5.74119 18.1185 1.74142 14.3139 1.74142 12.1061 1.74142 9.09973 1.74142 6.59447 1.92881 4.08921 2.70995 7.29921 3.58515 8.09748 6.33495 8.09748 7.41333 8.09748 8.97561 6.89198 10.5383 4.68423 10.5383 2.28869 10.5383-0.326288 8.58504-0.326288 5.35062-0.326288 1.33505 3.7917-0.258467 12.3094-0.258467 25.2271-0.258467 31.9442 7.89759 33.244 13.1789L44.3766 57.6478C44.6741 58.8349 44.6741 59.0381 44.6741 59.2413 44.6741 60.632 43.5625 61.7412 42.0591 61.7412 39.6636 61.7412 38.2545 59.7413 37.957 57.054L37.957 57.1477Z" stroke="#FFFFFF" stroke-width="0.0158793" stroke-linejoin="round" stroke-miterlimit="10" fill="#FFFFFF" fill-rule="evenodd" transform="matrix(1 0 0 -1 3469.5 708.5)"/><path d="M26.7019 23.1649C26.7019 27.4883 26.6355 34.8674 23.6652 40.5364 21.048 45.4998 16.8736 47.2754 13.2074 47.2754 9.80615 47.2754 5.49949 45.7094 2.81626 40.6135-0.0108736 35.2862-0.297936 28.6905-0.297936 23.1649-0.297936 19.117-0.220733 12.9517 1.96594 7.55826 5.00257 0.25666 10.4466-0.725092 13.2074-0.725092 16.4543-0.725092 21.4014 0.609613 24.2945 7.34866 26.4148 12.2458 26.7019 17.981 26.7019 23.1649ZM13.2074 0.400013C8.68001 0.400013 5.99641 4.30458 5.00257 9.68683 4.22946 13.8781 4.22946 19.9775 4.22946 23.9479 4.22946 29.4077 4.22946 33.9407 5.1461 38.2644 6.49333 44.2976 10.4466 46.1394 13.2074 46.1394 16.1009 46.1394 19.8443 44.2201 21.1915 38.4078 22.1081 34.3707 22.1745 29.6173 22.1745 23.9479 22.1745 19.3378 22.1745 13.6576 21.335 9.47723 19.8443 1.74558 15.6811 0.400013 13.2074 0.400013Z" stroke="#FFFFFF" stroke-width="0.0108268" stroke-linejoin="round" stroke-miterlimit="10" fill="#FFFFFF" fill-rule="evenodd" transform="matrix(1 0 0 -1 3518.5 708.5)"/><path d="M59.3399 13.9188 57.528 13.9188C56.6299 9.30949 56.3149 8.10618 55.8106 6.51266 55.3064 4.99703 55.007 4.20009 49.1612 4.20009L40.9997 4.20009C42.1024 10.0127 44.529 14.3252 48.7518 21.0281 53.9984 29.5439 58.3317 36.45 58.3317 44.7626 58.3317 58.2941 45.4271 69.3094 29.4028 69.3094 12.9534 69.3094 0.348253 58.1846 0.348253 44.7626 0.348253 36.45 4.79156 29.3407 9.73914 21.4345 14.1665 14.3252 16.5931 10.0127 17.6961 4.20009L9.53424 4.20009C3.783 4.20009 3.48362 4.99703 2.9797 6.40317 2.36501 8.01249 2.17604 9.30949 1.16748 13.9188L-0.659943 13.9188 2.27052-0.690682 17.4912-0.690682C19.6184-0.690682 19.7129-0.596629 19.7129 0.9032 19.7129 8.01249 15.9787 17.3252 14.2769 21.6219 11.0467 29.4344 8.02177 37.0595 8.02177 44.8721 8.02177 59.7939 18.8147 67.7001 29.2927 67.7001 40.2906 67.7001 50.6741 59.497 50.6741 44.8721 50.6741 37.1532 47.9481 30.2471 44.214 21.1222 42.6067 17.0283 38.9826 7.90336 38.9826 0.9032 38.9826-0.690682 39.0775-0.690682 41.1887-0.690682L56.425-0.690682 59.3399 13.9188Z" stroke="#FFFFFF" stroke-width="0.0158793" stroke-linejoin="round" stroke-miterlimit="10" fill="#FFFFFF" fill-rule="evenodd" transform="matrix(1 0 0 -1 2075.5 1967.5)"/><path d="M15.4302 46.5727C15.5075 46.857 15.6514 47.2727 15.6514 47.6227 15.6514 48.3339 14.943 48.3339 14.7992 48.3339 14.7218 48.3339 11.2577 48.0492 10.9035 47.9727 9.69707 47.907 8.63451 47.7649 7.36162 47.6992 5.59105 47.557 5.09301 47.4917 5.09301 46.2227 5.09301 45.5227 5.65717 45.5227 6.65325 45.5227 10.1177 45.5227 10.1951 44.9102 10.1951 44.2213 10.1951 43.8056 10.0513 43.2478 9.98477 43.0399L-0.285892 2.75665C-0.573963 1.70662-0.573963 1.56446-0.573963 1.14911-0.573963-0.39309 0.632449-0.666637 1.34082-0.666637 2.54723-0.666637 3.46594 0.241239 3.82012 1.0066L7.00743 13.6508C7.36162 15.1819 7.78228 16.6476 8.13647 18.1898 8.92222 21.1209 8.92222 21.1866 10.2616 23.2102 11.6118 25.2446 14.7992 29.4225 20.2554 29.4225 23.0889 29.4225 24.0741 27.3336 24.0741 24.5446 24.0741 20.6288 21.318 13.0161 19.7574 8.82711 19.1155 7.15387 18.7613 6.246 18.7613 4.98811 18.7613 1.84914 20.9638-0.666637 24.3618-0.666637 30.9471-0.666637 33.4261 9.59283 33.4261 10.0193 33.4261 10.3693 33.1384 10.6429 32.7177 10.6429 32.0758 10.6429 32.0097 10.435 31.6555 9.24282 30.0284 3.66453 27.4053 0.733409 24.5722 0.733409 23.8638 0.733409 22.7347 0.799103 22.7347 3.0302 22.7347 4.84595 23.5761 7.08818 23.8638 7.85354 25.1363 11.2007 28.324 19.4477 28.324 23.4946 28.324 27.6836 25.8447 30.8337 20.4658 30.8337 16.4262 30.8337 12.8844 28.9415 9.98477 25.31L15.4302 46.5727Z" stroke="#FFFFFF" stroke-width="0.0108268" stroke-linejoin="round" stroke-miterlimit="10" fill="#FFFFFF" fill-rule="evenodd" transform="matrix(1 0 0 -1 2276.5 1968.5)"/><path d="M69.9577 60.0515C70.8727 63.4266 71.0779 64.4267 78.2412 64.4267 80.0556 64.4267 81.0656 64.4267 81.0656 66.2235 81.0656 67.3327 80.1662 67.3327 79.551 67.3327 77.7362 67.3327 75.622 67.1295 73.6971 67.1295L61.7844 67.1295C59.8595 67.1295 57.7453 67.3327 55.8203 67.3327 55.1101 67.3327 53.9109 67.3327 53.9109 65.4265 53.9109 64.4267 54.6051 64.4267 56.5301 64.4267 62.5892 64.4267 62.5892 63.6298 62.5892 62.536 62.5892 62.3328 62.5892 61.739 62.1788 60.2546L56.0251 36.2232 25.5255 36.2232 31.5846 60.0515C32.4996 63.4266 32.7048 64.4267 39.8681 64.4267 41.6825 64.4267 42.6925 64.4267 42.6925 66.2235 42.6925 67.3327 41.7931 67.3327 41.1779 67.3327 39.3631 67.3327 37.2489 67.1295 35.324 67.1295L23.4113 67.1295C21.4864 67.1295 19.3722 67.3327 17.4472 67.3327 16.737 67.3327 15.5378 67.3327 15.5378 65.4265 15.5378 64.4267 16.232 64.4267 18.157 64.4267 24.2161 64.4267 24.2161 63.6298 24.2161 62.536 24.2161 62.3328 24.2161 61.739 23.8057 60.2546L10.1733 6.7076C9.2739 3.22331 9.06872 2.22318 2.09462 2.22318-0.22476 2.22318-0.93493 2.22318-0.93493 0.332419-0.93493-0.66735 0.185608-0.66735 0.48541-0.66735 2.29981-0.66735 4.42995-0.479961 6.33896-0.479961L18.2516-0.479961C20.1766-0.479961 22.2911-0.66735 24.2161-0.66735 25.0205-0.66735 26.1411-0.66735 26.1411 1.22306 26.1411 2.22318 25.2257 2.22318 23.7111 2.22318 17.5574 2.22318 17.5574 3.02013 17.5574 4.0199 17.5574 4.11395 17.5574 4.81684 17.747 5.61378L24.7211 33.3327 55.3153 33.3327C53.5955 26.7547 48.4518 5.91066 48.2466 5.3169 47.142 2.31688 45.5169 2.31688 39.5683 2.22318 38.3535 2.22318 37.4382 2.22318 37.4382 0.332419 37.4382-0.66735 38.5587-0.66735 38.8585-0.66735 40.6729-0.66735 42.8031-0.479961 44.7121-0.479961L56.6247-0.479961C58.5497-0.479961 60.6642-0.66735 62.5892-0.66735 63.3936-0.66735 64.5142-0.66735 64.5142 1.22306 64.5142 2.22318 63.5988 2.22318 62.0842 2.22318 55.9305 2.22318 55.9305 3.02013 55.9305 4.0199 55.9305 4.11395 55.9305 4.81684 56.1201 5.61378L69.9577 60.0515Z" stroke="#FFFFFF" stroke-width="0.0158793" stroke-linejoin="round" stroke-miterlimit="10" fill="#FFFFFF" fill-rule="evenodd" transform="matrix(1 0 0 -1 2420.5 1967.5)"/><path d="M12.9295 100.536-0.0709615 100.536-0.0709615 96.9849 9.3995 96.9849 9.3995 3.07027-0.0709615 3.07027-0.0709615-0.464456 12.9295-0.464456 12.9295 100.536Z" stroke="#FFFFFF" stroke-width="0.0158793" stroke-linejoin="round" stroke-miterlimit="10" fill="#FFFFFF" fill-rule="evenodd" transform="matrix(1 0 0 -1 2534.5 1993.5)"/><path d="M23.7405 26.4934C22.4402 26.4934 21.8165 26.4934 20.8601 25.6645 20.441 25.3201 19.6885 24.2867 19.6885 23.1777 19.6885 21.8002 20.7204 20.9714 22.0207 20.9714 23.676 20.9714 25.5355 22.3489 25.5355 25.1046 25.5355 28.2047 22.3647 30.6265 17.6247 30.6265 8.60685 30.6265-0.400056 21.1113-0.400056 11.1976-0.400056 5.11566 3.31898-0.374136 10.3267-0.374136 19.6885-0.374136 25.6001 7.01037 25.6001 7.91444 25.6001 8.33415 25.1915 8.67861 24.9121 8.67861 24.7079 8.67861 24.6433 8.61396 24.02 7.9791 19.6133 2.04803 13.0784 1.0037 10.4664 1.0037 5.72638 1.0037 4.21082 5.19092 4.21082 8.67861 4.21082 11.122 5.38241 17.9034 7.85472 22.629 9.63874 25.8687 13.3578 29.2381 17.6893 29.2381 18.5814 29.2381 22.3647 29.1197 23.7405 26.4934Z" stroke="#FFFFFF" stroke-width="0.0108268" stroke-linejoin="round" stroke-miterlimit="10" fill="#FFFFFF" fill-rule="evenodd" transform="matrix(1 0 0 -1 2254.5 1968.5)"/><path d="M8.93473 16.1596C10.8081 16.1596 15.5574 16.2889 18.9013 17.5374 24.195 19.5395 24.6852 23.5653 24.6852 24.8032 24.6852 27.8602 22.0385 30.6265 17.4308 30.6265 10.111 30.6265-0.411146 24.0496-0.411146 11.7893-0.411146 4.6207 3.77146-0.374136 10.111-0.374136 19.5984-0.374136 25.5893 6.87011 25.5893 7.75299 25.5893 8.1621 25.1753 8.50656 24.8922 8.50656 24.6852 8.50656 24.6198 8.44191 23.988 7.82824 19.5223 2.02648 12.8996 1.0037 10.2525 1.0037 6.27694 1.0037 4.18546 4.07169 4.18546 9.11987 4.18546 10.078 4.18546 11.7893 5.2312 16.1596L8.93473 16.1596ZM5.57978 17.5374C8.58615 28.2047 15.2088 29.2381 17.4308 29.2381 20.5026 29.2381 22.5937 27.4405 22.5937 24.8032 22.5937 17.5374 11.4399 17.5374 8.50964 17.5374L5.57978 17.5374Z" stroke="#FFFFFF" stroke-width="0.0108268" stroke-linejoin="round" stroke-miterlimit="10" fill="#FFFFFF" fill-rule="evenodd" transform="matrix(1 0 0 -1 2225.5 1968.5)"/><path d="M11.6536 20.445C11.7958 20.8647 13.5459 24.2983 16.1378 26.4944 17.9536 28.1415 20.338 29.2391 23.0721 29.2391 25.8723 29.2391 26.8459 27.1833 26.8459 24.4386 26.8459 24.0185 26.8459 22.6517 26.0037 19.4222L24.2536 12.3398C23.6957 10.273 22.3724 5.19233 22.2303 4.43876 21.9456 3.40538 21.5302 1.61843 21.5302 1.33862 21.5302 0.380849 22.2956-0.372723 23.3457-0.372723 25.4458-0.372723 25.7958 1.20967 26.4301 3.68519L30.63 20.1005C30.7722 20.6602 34.4034 29.2391 42.1034 29.2391 44.9036 29.2391 45.8879 27.1833 45.8879 24.4386 45.8879 20.5849 43.1535 13.093 41.6224 8.97043 40.988 7.32339 40.638 6.43026 40.638 5.19233 40.638 2.10279 42.8035-0.372723 46.1722-0.372723 52.6801-0.372723 55.1302 9.724 55.1302 10.1437 55.1302 10.4882 54.8455 10.7574 54.4302 10.7574 53.7958 10.7574 53.7301 10.5528 53.3801 9.37954 51.7722 3.88974 49.1799 1.00512 46.3801 1.00512 45.6801 1.00512 44.5535 1.06977 44.5535 3.26548 44.5535 5.05243 45.3957 7.25909 45.6801 8.0123 46.938 11.3064 50.0878 19.4222 50.0878 23.4052 50.0878 27.5278 47.638 30.6279 42.3224 30.6279 37.63 30.6279 33.8459 28.0122 31.0457 23.9542 30.8379 27.6677 28.5302 30.6279 23.28 30.6279 17.0457 30.6279 13.7537 26.2899 12.4958 24.5676 12.288 28.4859 9.42249 30.6279 6.33802 30.6279 4.30361 30.6279 2.69568 29.6592 1.37243 27.0434 0.103749 24.5676-0.86984 20.3803-0.86984 20.1005-0.86984 19.8313-0.596287 19.4869-0.104108 19.4869 0.453767 19.4869 0.530233 19.5515 0.945946 21.1339 1.99564 25.1918 3.33002 29.2391 6.13016 29.2391 7.73809 29.2391 8.29561 28.1415 8.29561 26.0853 8.29561 24.5676 7.59593 21.8875 7.10375 19.7667L5.14581 12.3398C4.87225 11.0372 4.09575 7.93705 3.74573 6.69912 3.25355 4.91252 2.48782 1.68308 2.48782 1.33862 2.48782 0.380849 3.25355-0.372723 4.30361-0.372723 5.14581-0.372723 6.13016 0.0363891 6.68804 1.06977 6.8302 1.41387 7.45341 3.81449 7.80343 5.19233L9.34566 11.3816 11.6536 20.445Z" stroke="#FFFFFF" stroke-width="0.0108268" stroke-linejoin="round" stroke-miterlimit="10" fill="#FFFFFF" fill-rule="evenodd" transform="matrix(1 0 0 -1 2166.5 1968.5)"/><path d="M12.7253-0.465906 12.7253 3.06918 3.25074 3.06918 3.25074 96.9838 12.7253 96.9838 12.7253 100.535-0.274451 100.535-0.274451-0.465906 12.7253-0.465906Z" stroke="#FFFFFF" stroke-width="0.0158793" stroke-linejoin="round" stroke-miterlimit="10" fill="#FFFFFF" fill-rule="evenodd" transform="matrix(1 0 0 -1 2418.5 1993.5)"/><path d="M8.0051 8.21319C12.3325 13.2601 15.8576 16.4788 20.8929 21.1352 26.9359 26.5102 29.5481 29.0884 30.9643 30.6507 38.0142 37.6667 41.5393 43.0102 41.5393 43.8071 41.5393 44.6199 40.7367 44.6199 40.532 44.6199 39.8241 44.6199 39.6195 44.2135 39.1158 43.5103 36.598 39.2136 34.1904 37.6197 31.5623 37.6197 29.4538 37.6197 28.3521 38.1664 26.4323 40.4165 24.3237 42.9165 22.6085 44.6199 19.6814 44.6199 12.3325 44.6199 7.89483 36.0104 7.89483 33.854 7.89483 33.5416 8.0051 32.9166 8.90211 32.9166 9.7203 32.9166 9.81466 33.3384 10.1137 34.0571 11.8289 37.9166 16.6599 38.3542 18.5797 38.3542 20.6887 38.3542 22.7029 37.9166 24.8273 37.2133 28.6511 35.604 30.2564 35.604 31.2633 35.604 31.9716 35.604 32.3805 35.604 32.8841 35.7135 29.5481 31.6821 24.1191 26.7134 19.587 22.4788L9.40575 12.8538C3.26842 6.55719-0.460978 1.11967-0.460978 0.416421-0.460978-0.193133 0.0423015-0.380523 0.656215-0.380523 1.25422-0.380523 1.34859-0.286828 2.05686 0.916485 3.6777 3.41645 6.88791 6.61966 10.6173 6.61966 12.7418 6.61966 13.7487 6.18206 15.7629 3.91651 17.6672 1.71307 19.3824-0.380523 22.6085-0.380523 32.4752-0.380523 38.1086 11.9165 38.1086 14.3069 38.1086 14.7133 38.0142 15.3383 37.0073 15.3383 36.2046 15.3383 36.0944 14.9165 35.7954 13.8851 33.5765 7.80718 27.6442 5.86938 23.7098 5.86938 21.6012 5.86938 19.587 6.30698 17.4626 7.01023 13.4341 8.61956 12.3325 8.61956 11.0266 8.61956 10.0193 8.61956 8.90211 8.61956 8.0051 8.21319Z" stroke="#FFFFFF" stroke-width="0.0158793" stroke-linejoin="round" stroke-miterlimit="10" fill="#FFFFFF" fill-rule="evenodd" transform="matrix(1 0 0 -1 2497.5 1967.5)"/><path d="M1083.03 603.51C1086.61 603.51 1090.05 602.087 1092.58 599.555 1095.11 597.024 1096.53 593.59 1096.53 590.009 1096.53 586.429 1095.11 582.995 1092.58 580.463 1090.05 577.932 1086.61 576.51 1083.03 576.51 1079.45 576.51 1076.02 577.932 1073.49 580.463 1070.96 582.995 1069.53 586.429 1069.53 590.009 1069.53 593.59 1070.96 597.024 1073.49 599.555 1076.02 602.087 1079.45 603.51 1083.03 603.51Z" stroke="#1F77B4" stroke-width="4.58658" stroke-linejoin="round" stroke-miterlimit="10" fill="#4472C4" fill-rule="evenodd"/><path d="M1713.59 1426.58C1717.3 1426.58 1720.86 1425.1 1723.49 1422.48 1726.11 1419.85 1727.59 1416.29 1727.59 1412.58 1727.59 1408.86 1726.11 1405.3 1723.49 1402.68 1720.86 1400.05 1717.3 1398.58 1713.59 1398.58 1709.87 1398.58 1706.31 1400.05 1703.69 1402.68 1701.06 1405.3 1699.59 1408.86 1699.59 1412.58 1699.59 1416.29 1701.06 1419.85 1703.69 1422.48 1706.31 1425.1 1709.87 1426.58 1713.59 1426.58Z" stroke="#1F77B4" stroke-width="4.58658" stroke-linejoin="round" stroke-miterlimit="10" fill="#4472C4" fill-rule="evenodd"/><path d="M2348.13 1589.59C2351.71 1589.59 2355.15 1588.11 2357.68 1585.49 2360.21 1582.86 2361.63 1579.3 2361.63 1575.59 2361.63 1571.88 2360.21 1568.31 2357.68 1565.69 2355.15 1563.06 2351.71 1561.59 2348.13 1561.59 2344.55 1561.59 2341.12 1563.06 2338.59 1565.69 2336.05 1568.31 2334.63 1571.88 2334.63 1575.59 2334.63 1579.3 2336.05 1582.86 2338.59 1585.49 2341.12 1588.11 2344.55 1589.59 2348.13 1589.59Z" stroke="#1F77B4" stroke-width="4.58658" stroke-linejoin="round" stroke-miterlimit="10" fill="#4472C4" fill-rule="evenodd"/><path d="M2983.69 1651.59C2987.4 1651.59 2990.96 1650.17 2993.59 1647.64 2996.21 1645.1 2997.69 1641.67 2997.69 1638.09 2997.69 1634.51 2996.21 1631.08 2993.59 1628.54 2990.96 1626.01 2987.4 1624.59 2983.69 1624.59 2979.98 1624.59 2976.41 1626.01 2973.79 1628.54 2971.16 1631.08 2969.69 1634.51 2969.69 1638.09 2969.69 1641.67 2971.16 1645.1 2973.79 1647.64 2976.41 1650.17 2979.98 1651.59 2983.69 1651.59Z" stroke="#1F77B4" stroke-width="4.58658" stroke-linejoin="round" stroke-miterlimit="10" fill="#4472C4" fill-rule="evenodd"/><path d="M3620.74 1690.6C3624.45 1690.6 3628.01 1689.12 3630.64 1686.5 3633.26 1683.87 3634.74 1680.31 3634.74 1676.6 3634.74 1672.88 3633.26 1669.32 3630.64 1666.7 3628.01 1664.07 3624.45 1662.6 3620.74 1662.6 3617.03 1662.6 3613.46 1664.07 3610.84 1666.7 3608.21 1669.32 3606.74 1672.88 3606.74 1676.6 3606.74 1680.31 3608.21 1683.87 3610.84 1686.5 3613.46 1689.12 3617.03 1690.6 3620.74 1690.6Z" stroke="#1F77B4" stroke-width="4.58658" stroke-linejoin="round" stroke-miterlimit="10" fill="#4472C4" fill-rule="evenodd"/><path d="M3372.21 676.516C3375.79 676.516 3379.23 675.04 3381.76 672.415 3384.29 669.79 3385.71 666.229 3385.71 662.516 3385.71 658.803 3384.29 655.242 3381.76 652.616 3379.23 649.991 3375.79 648.516 3372.21 648.516 3368.63 648.516 3365.2 649.991 3362.67 652.616 3360.14 655.242 3358.71 658.803 3358.71 662.516 3358.71 666.229 3360.14 669.79 3362.67 672.415 3365.2 675.04 3368.63 676.516 3372.21 676.516Z" stroke="#1F77B4" stroke-width="4.58658" stroke-linejoin="round" stroke-miterlimit="10" fill="#4472C4" fill-rule="evenodd"/></g></svg>