<svg width="3675" height="785" xmlns="http://www.w3.org/2000/svg" xmlns:xlink="http://www.w3.org/1999/xlink" overflow="hidden"><defs><clipPath id="clip0"><rect x="195" y="1418" width="3675" height="785"/></clipPath></defs><g clip-path="url(#clip0)" transform="translate(-195 -1418)"><path d="M3859.5 1428.5 3859.5 1937.5 2861.5 1937.5" stroke="#000000" stroke-width="20.625" stroke-linecap="round" stroke-linejoin="round" stroke-miterlimit="10" fill="none" fill-rule="evenodd"/><path d="M2470.46 1937.51C2470.46 2078.62 2557.84 2191.51 2664.96 2191.51 2772.08 2191.51 2859.46 2078.62 2859.46 1937.51" stroke="#000000" stroke-width="20.625" stroke-linecap="round" stroke-miterlimit="8" fill="none" fill-rule="evenodd"/><path d="M2470.5 1937.5C2470.5 1796.94 2498.78 1684.5 2535.53 1684.5 2572.29 1684.5 2597.5 1796.94 2597.5 1937.5" stroke="#000000" stroke-width="20.625" stroke-linecap="round" stroke-miterlimit="8" fill="none" fill-rule="evenodd"/><path d="M2208.46 1937.51C2208.46 2078.62 2295.84 2191.51 2402.96 2191.51 2510.08 2191.51 2597.46 2078.62 2597.46 1937.51" stroke="#000000" stroke-width="20.625" stroke-linecap="round" stroke-miterlimit="8" fill="none" fill-rule="evenodd"/><path d="M2208.46 1937.51C2208.46 1796.95 2236.72 1684.51 2273.46 1684.51 2310.2 1684.51 2338.46 1796.95 2338.46 1937.51" stroke="#000000" stroke-width="20.625" stroke-linecap="round" stroke-miterlimit="8" fill="none" fill-rule="evenodd"/><path d="M1949.46 1937.51C1949.46 2078.62 2036.84 2191.51 2143.96 2191.51 2251.08 2191.51 2338.46 2078.62 2338.46 1937.51" stroke="#000000" stroke-width="20.625" stroke-linecap="round" stroke-miterlimit="8" fill="none" fill-rule="evenodd"/><path d="M1949.46 1937.51C1949.46 1796.95 1977.72 1684.51 2014.46 1684.51 2051.2 1684.51 2079.46 1796.95 2079.46 1937.51" stroke="#000000" stroke-width="20.625" stroke-linecap="round" stroke-miterlimit="8" fill="none" fill-rule="evenodd"/><path d="M1690.46 1937.51C1690.46 2078.62 1777.84 2191.51 1884.96 2191.51 1992.08 2191.51 2079.46 2078.62 2079.46 1937.51" stroke="#000000" stroke-width="20.625" stroke-linecap="round" stroke-miterlimit="8" fill="none" fill-rule="evenodd"/><path d="M1690.5 1937.5C1690.5 1796.94 1718.61 1684.5 1755.15 1684.5 1791.68 1684.5 1817.5 1796.18 1817.5 1936.74" stroke="#000000" stroke-width="20.625" stroke-linecap="round" stroke-miterlimit="8" fill="none" fill-rule="evenodd"/><path d="M1428.46 1937.51C1428.46 1796.95 1456.72 1684.51 1493.46 1684.51 1530.2 1684.51 1558.46 1796.95 1558.46 1937.51" stroke="#000000" stroke-width="20.625" stroke-linecap="round" stroke-miterlimit="8" fill="none" fill-rule="evenodd"/><path d="M1428.46 1937.51C1428.46 2078.62 1515.84 2191.51 1622.96 2191.51 1730.08 2191.51 1817.46 2078.62 1817.46 1937.51" stroke="#000000" stroke-width="20.625" stroke-linecap="round" stroke-miterlimit="8" fill="none" fill-rule="evenodd"/><path d="M1169.46 1937.51C1169.46 2078.62 1256.84 2191.51 1363.96 2191.51 1471.08 2191.51 1558.46 2078.62 1558.46 1937.51" stroke="#000000" stroke-width="20.625" stroke-linecap="round" stroke-miterlimit="8" fill="none" fill-rule="evenodd"/><path d="M510 963 0 963 0 0" stroke="#000000" stroke-width="20.625" stroke-linecap="round" stroke-linejoin="round" stroke-miterlimit="10" fill="none" fill-rule="evenodd" transform="matrix(-1.83697e-16 -1 -1 1.83697e-16 1168.5 1938.5)"/></g></svg>