<svg width="1428" height="1478" xmlns="http://www.w3.org/2000/svg" xmlns:xlink="http://www.w3.org/1999/xlink" overflow="hidden"><defs><clipPath id="clip0"><rect x="1400" y="451" width="1428" height="1478"/></clipPath></defs><g clip-path="url(#clip0)" transform="translate(-1400 -451)"><path d="M2209.5 451.5 2820.5 451.5 2820.5 1928.5 2209.5 1928.5Z" stroke="#FFFFFF" stroke-width="1.14583" stroke-miterlimit="8" fill="none" fill-rule="evenodd"/><path d="M0 0 814 0" stroke="#83C167" stroke-width="10.175" stroke-miterlimit="8" stroke-dasharray="40.7 30.525" fill="none" fill-rule="evenodd" transform="matrix(1 0 0 -1 2009 1439)"/><path d="M1400 1157 2823 1157" stroke="#83C167" stroke-width="10.175" stroke-miterlimit="8" stroke-dasharray="40.7 30.525" fill="none" fill-rule="evenodd"/><path d="M0 0 815 0" stroke="#83C167" stroke-width="10.175" stroke-miterlimit="8" stroke-dasharray="40.7 30.525" fill="none" fill-rule="evenodd" transform="matrix(1 0 0 -1 2006 1708)"/><path d="M0 0 815 0" stroke="#83C167" stroke-width="10.175" stroke-miterlimit="8" stroke-dasharray="40.7 30.525" fill="none" fill-rule="evenodd" transform="matrix(1 0 0 -1 2006 609)"/><path d="M0 0 814 0" stroke="#83C167" stroke-width="10.175" stroke-miterlimit="8" stroke-dasharray="40.7 30.525" fill="none" fill-rule="evenodd" transform="matrix(1 0 0 -1 2005 878)"/><path d="M0 0 570.693 0" stroke="#83C167" stroke-width="10.175" stroke-miterlimit="8" stroke-dasharray="40.7 30.525" fill="none" fill-rule="evenodd" transform="matrix(0.838952 -0.544205 -0.544205 -0.838952 1530.44 918.85)"/><path d="M0 0 496.921 0" stroke="#83C167" stroke-width="10.175" stroke-miterlimit="8" stroke-dasharray="40.7 30.525" fill="none" fill-rule="evenodd" transform="matrix(0.957615 -0.288052 -0.288052 -0.957615 1535.45 1020.32)"/><path d="M1530.44 1398.34 2009.22 1708.92" stroke="#83C167" stroke-width="10.175" stroke-miterlimit="8" stroke-dasharray="40.7 30.525" fill="none" fill-rule="evenodd"/><path d="M1541 1296.65 2016.86 1439.79" stroke="#83C167" stroke-width="10.175" stroke-miterlimit="8" stroke-dasharray="40.7 30.525" fill="none" fill-rule="evenodd"/></g></svg>