<svg width="598" height="1297" xmlns="http://www.w3.org/2000/svg" xmlns:xlink="http://www.w3.org/1999/xlink" overflow="hidden"><defs><clipPath id="clip0"><rect x="3450" y="563" width="598" height="1297"/></clipPath></defs><g clip-path="url(#clip0)" transform="translate(-3450 -563)"><path d="M3594.11 884.481C3594.11 898.561 3582.7 909.98 3568.61 909.98 3554.53 909.98 3543.11 898.561 3543.11 884.481 3543.11 870.4 3554.53 858.981 3568.61 858.981 3582.7 858.981 3594.11 870.4 3594.11 884.481Z" stroke="#FC6255" stroke-width="10.175" stroke-miterlimit="8" fill="#FC6255" fill-rule="evenodd"/><path d="M3629.12 950.485C3629.12 964.566 3617.7 975.985 3603.62 975.985 3589.53 975.985 3578.12 964.566 3578.12 950.485 3578.12 936.404 3589.53 924.985 3603.62 924.985 3617.7 924.985 3629.12 936.404 3629.12 950.485Z" stroke="#FC6255" stroke-width="10.175" stroke-miterlimit="8" fill="#FC6255" fill-rule="evenodd"/><path d="M3696.12 884.481C3696.12 898.561 3684.7 909.98 3670.62 909.98 3656.54 909.98 3645.12 898.561 3645.12 884.481 3645.12 870.4 3656.54 858.981 3670.62 858.981 3684.7 858.981 3696.12 870.4 3696.12 884.481Z" stroke="#FC6255" stroke-width="10.175" stroke-miterlimit="8" fill="#FC6255" fill-rule="evenodd"/><path d="M3823.13 833.477C3823.13 847.558 3811.71 858.977 3797.63 858.977 3783.55 858.977 3772.13 847.558 3772.13 833.477 3772.13 819.396 3783.55 807.977 3797.63 807.977 3811.71 807.977 3823.13 819.396 3823.13 833.477Z" stroke="#FC6255" stroke-width="10.175" stroke-miterlimit="8" fill="#FC6255" fill-rule="evenodd"/><path d="M3838.13 930.483C3838.13 944.564 3826.71 955.983 3812.63 955.983 3798.55 955.983 3787.13 944.564 3787.13 930.483 3787.13 916.401 3798.55 904.982 3812.63 904.982 3826.71 904.982 3838.13 916.401 3838.13 930.483Z" stroke="#FC6255" stroke-width="10.175" stroke-miterlimit="8" fill="#FC6255" fill-rule="evenodd"/><path d="M3757.12 924.484C3757.12 938.564 3745.71 949.983 3731.63 949.983 3717.54 949.983 3706.12 938.564 3706.12 924.484 3706.12 910.402 3717.54 898.983 3731.63 898.983 3745.71 898.983 3757.12 910.402 3757.12 924.484Z" stroke="#FC6255" stroke-width="10.175" stroke-miterlimit="8" fill="#FC6255" fill-rule="evenodd"/><path d="M3884.13 873.48C3884.13 887.561 3872.72 898.98 3858.63 898.98 3844.55 898.98 3833.13 887.561 3833.13 873.48 3833.13 859.399 3844.55 847.98 3858.63 847.98 3872.72 847.98 3884.13 859.399 3884.13 873.48Z" stroke="#FC6255" stroke-width="10.175" stroke-miterlimit="8" fill="#FC6255" fill-rule="evenodd"/><path d="M3950.14 909.483C3950.14 923.564 3938.72 934.983 3924.64 934.983 3910.56 934.983 3899.14 923.564 3899.14 909.483 3899.14 895.401 3910.56 883.982 3924.64 883.982 3938.72 883.982 3950.14 895.401 3950.14 909.483Z" stroke="#FC6255" stroke-width="10.175" stroke-miterlimit="8" fill="#FC6255" fill-rule="evenodd"/><path d="M4027.14 884.481C4027.14 898.561 4015.73 909.98 4001.64 909.98 3987.56 909.98 3976.14 898.561 3976.14 884.481 3976.14 870.4 3987.56 858.981 4001.64 858.981 4015.73 858.981 4027.14 870.4 4027.14 884.481Z" stroke="#FC6255" stroke-width="10.175" stroke-miterlimit="8" fill="#FC6255" fill-rule="evenodd"/><path d="M3960.14 848.478C3960.14 862.559 3948.72 873.978 3934.64 873.978 3920.56 873.978 3909.14 862.559 3909.14 848.478 3909.14 834.397 3920.56 822.978 3934.64 822.978 3948.72 822.978 3960.14 834.397 3960.14 848.478Z" stroke="#FC6255" stroke-width="10.175" stroke-miterlimit="8" fill="#FC6255" fill-rule="evenodd"/><path d="M4011.14 950.485C4011.14 964.566 3999.73 975.985 3985.64 975.985 3971.56 975.985 3960.14 964.566 3960.14 950.485 3960.14 936.404 3971.56 924.985 3985.64 924.985 3999.73 924.985 4011.14 936.404 4011.14 950.485Z" stroke="#FC6255" stroke-width="10.175" stroke-miterlimit="8" fill="#FC6255" fill-rule="evenodd"/><path d="M4027.14 1145.5C4027.14 1159.58 4015.73 1171 4001.64 1171 3987.56 1171 3976.14 1159.58 3976.14 1145.5 3976.14 1131.42 3987.56 1120 4001.64 1120 4015.73 1120 4027.14 1131.42 4027.14 1145.5Z" stroke="#FC6255" stroke-width="10.175" stroke-miterlimit="8" fill="#FC6255" fill-rule="evenodd"/><path d="M4027.14 1222.51C4027.14 1236.59 4015.73 1248.01 4001.64 1248.01 3987.56 1248.01 3976.14 1236.59 3976.14 1222.51 3976.14 1208.42 3987.56 1197.01 4001.64 1197.01 4015.73 1197.01 4027.14 1208.42 4027.14 1222.51Z" stroke="#FC6255" stroke-width="10.175" stroke-miterlimit="8" fill="#FC6255" fill-rule="evenodd"/><path d="M3925.14 1145.5C3925.14 1159.58 3913.72 1171 3899.64 1171 3885.55 1171 3874.14 1159.58 3874.14 1145.5 3874.14 1131.42 3885.55 1120 3899.64 1120 3913.72 1120 3925.14 1131.42 3925.14 1145.5Z" stroke="#FC6255" stroke-width="10.175" stroke-miterlimit="8" fill="#FC6255" fill-rule="evenodd"/><path d="M3925.14 1222.51C3925.14 1236.59 3913.72 1248.01 3899.64 1248.01 3885.55 1248.01 3874.14 1236.59 3874.14 1222.51 3874.14 1208.42 3885.55 1197.01 3899.64 1197.01 3913.72 1197.01 3925.14 1208.42 3925.14 1222.51Z" stroke="#FC6255" stroke-width="10.175" stroke-miterlimit="8" fill="#FC6255" fill-rule="evenodd"/><path d="M3848.13 1145.5C3848.13 1159.58 3836.71 1171 3822.63 1171 3808.55 1171 3797.13 1159.58 3797.13 1145.5 3797.13 1131.42 3808.55 1120 3822.63 1120 3836.71 1120 3848.13 1131.42 3848.13 1145.5Z" stroke="#FC6255" stroke-width="10.175" stroke-miterlimit="8" fill="#FC6255" fill-rule="evenodd"/><path d="M3797.13 1171.5C3797.13 1185.58 3785.71 1197 3771.63 1197 3757.54 1197 3746.13 1185.58 3746.13 1171.5 3746.13 1157.42 3757.54 1146 3771.63 1146 3785.71 1146 3797.13 1157.42 3797.13 1171.5Z" stroke="#FC6255" stroke-width="10.175" stroke-miterlimit="8" fill="#FC6255" fill-rule="evenodd"/><path d="M3736.12 1155.5C3736.12 1169.58 3724.71 1181 3710.62 1181 3696.54 1181 3685.12 1169.58 3685.12 1155.5 3685.12 1141.42 3696.54 1130 3710.62 1130 3724.71 1130 3736.12 1141.42 3736.12 1155.5Z" stroke="#FC6255" stroke-width="10.175" stroke-miterlimit="8" fill="#FC6255" fill-rule="evenodd"/><path d="M3665.12 1150.5C3665.12 1164.58 3653.7 1176 3639.62 1176 3625.53 1176 3614.12 1164.58 3614.12 1150.5 3614.12 1136.42 3625.53 1125 3639.62 1125 3653.7 1125 3665.12 1136.42 3665.12 1150.5Z" stroke="#FC6255" stroke-width="10.175" stroke-miterlimit="8" fill="#FC6255" fill-rule="evenodd"/><path d="M3619.11 1196.5C3619.11 1210.59 3607.7 1222 3593.62 1222 3579.53 1222 3568.12 1210.59 3568.12 1196.5 3568.12 1182.42 3579.53 1171 3593.62 1171 3607.7 1171 3619.11 1182.42 3619.11 1196.5Z" stroke="#FC6255" stroke-width="10.175" stroke-miterlimit="8" fill="#FC6255" fill-rule="evenodd"/><path d="M3568.11 1145.5C3568.11 1159.58 3556.69 1171 3542.61 1171 3528.53 1171 3517.11 1159.58 3517.11 1145.5 3517.11 1131.42 3528.53 1120 3542.61 1120 3556.69 1120 3568.11 1131.42 3568.11 1145.5Z" stroke="#FC6255" stroke-width="10.175" stroke-miterlimit="8" fill="#FC6255" fill-rule="evenodd"/><path d="M3517.11 1222.51C3517.11 1236.59 3505.69 1248.01 3491.61 1248.01 3477.52 1248.01 3466.11 1236.59 3466.11 1222.51 3466.11 1208.42 3477.52 1197.01 3491.61 1197.01 3505.69 1197.01 3517.11 1208.42 3517.11 1222.51Z" stroke="#FC6255" stroke-width="10.175" stroke-miterlimit="8" fill="#FC6255" fill-rule="evenodd"/><path d="M3568.11 1247.51C3568.11 1261.59 3556.69 1273.01 3542.61 1273.01 3528.53 1273.01 3517.11 1261.59 3517.11 1247.51 3517.11 1233.43 3528.53 1222.01 3542.61 1222.01 3556.69 1222.01 3568.11 1233.43 3568.11 1247.51Z" stroke="#FC6255" stroke-width="10.175" stroke-miterlimit="8" fill="#FC6255" fill-rule="evenodd"/><path d="M3670.12 1247.51C3670.12 1261.59 3658.7 1273.01 3644.62 1273.01 3630.54 1273.01 3619.12 1261.59 3619.12 1247.51 3619.12 1233.43 3630.54 1222.01 3644.62 1222.01 3658.7 1222.01 3670.12 1233.43 3670.12 1247.51Z" stroke="#FC6255" stroke-width="10.175" stroke-miterlimit="8" fill="#FC6255" fill-rule="evenodd"/><path d="M3746.12 1222.51C3746.12 1236.59 3734.93 1248.01 3721.12 1248.01 3707.31 1248.01 3696.12 1236.59 3696.12 1222.51 3696.12 1208.42 3707.31 1197.01 3721.12 1197.01 3734.93 1197.01 3746.12 1208.42 3746.12 1222.51Z" stroke="#FC6255" stroke-width="10.175" stroke-miterlimit="8" fill="#FC6255" fill-rule="evenodd"/><path d="M3797.13 1222.51C3797.13 1236.59 3785.71 1248.01 3771.63 1248.01 3757.54 1248.01 3746.13 1236.59 3746.13 1222.51 3746.13 1208.42 3757.54 1197.01 3771.63 1197.01 3785.71 1197.01 3797.13 1208.42 3797.13 1222.51Z" stroke="#FC6255" stroke-width="10.175" stroke-miterlimit="8" fill="#FC6255" fill-rule="evenodd"/><path d="M3864.13 1206.5C3864.13 1220.59 3852.72 1232.01 3838.63 1232.01 3824.55 1232.01 3813.13 1220.59 3813.13 1206.5 3813.13 1192.42 3824.55 1181.01 3838.63 1181.01 3852.72 1181.01 3864.13 1192.42 3864.13 1206.5Z" stroke="#FC6255" stroke-width="10.175" stroke-miterlimit="8" fill="#FC6255" fill-rule="evenodd"/><path d="M3971.14 1176.5C3971.14 1190.58 3959.72 1202 3945.64 1202 3931.56 1202 3920.14 1190.58 3920.14 1176.5 3920.14 1162.42 3931.56 1151 3945.64 1151 3959.72 1151 3971.14 1162.42 3971.14 1176.5Z" stroke="#FC6255" stroke-width="10.175" stroke-miterlimit="8" fill="#FC6255" fill-rule="evenodd"/><path d="M3650.12 840.477C3650.12 854.559 3638.7 865.978 3624.62 865.978 3610.53 865.978 3599.12 854.559 3599.12 840.477 3599.12 826.396 3610.53 814.978 3624.62 814.978 3638.7 814.978 3650.12 826.396 3650.12 840.477Z" stroke="#FC6255" stroke-width="10.175" stroke-miterlimit="8" fill="#FC6255" fill-rule="evenodd"/><path d="M3553.11 950.485C3553.11 964.566 3541.69 975.985 3527.61 975.985 3513.53 975.985 3502.11 964.566 3502.11 950.485 3502.11 936.404 3513.53 924.985 3527.61 924.985 3541.69 924.985 3553.11 936.404 3553.11 950.485Z" stroke="#FC6255" stroke-width="10.175" stroke-miterlimit="8" fill="#FC6255" fill-rule="evenodd"/><path d="M3696.12 960.486C3696.12 974.567 3684.7 985.986 3670.62 985.986 3656.54 985.986 3645.12 974.567 3645.12 960.486 3645.12 946.405 3656.54 934.986 3670.62 934.986 3684.7 934.986 3696.12 946.405 3696.12 960.486Z" stroke="#FC6255" stroke-width="10.175" stroke-miterlimit="8" fill="#FC6255" fill-rule="evenodd"/><path d="M3884.13 950.485C3884.13 964.566 3872.72 975.985 3858.63 975.985 3844.55 975.985 3833.13 964.566 3833.13 950.485 3833.13 936.404 3844.55 924.985 3858.63 924.985 3872.72 924.985 3884.13 936.404 3884.13 950.485Z" stroke="#FC6255" stroke-width="10.175" stroke-miterlimit="8" fill="#FC6255" fill-rule="evenodd"/><path d="M3517.11 884.481C3517.11 898.561 3505.69 909.98 3491.61 909.98 3477.52 909.98 3466.11 898.561 3466.11 884.481 3466.11 870.4 3477.52 858.981 3491.61 858.981 3505.69 858.981 3517.11 870.4 3517.11 884.481Z" stroke="#FC6255" stroke-width="10.175" stroke-miterlimit="8" fill="#FC6255" fill-rule="evenodd"/><path d="M3752.12 848.478C3752.12 862.559 3740.71 873.978 3726.62 873.978 3712.54 873.978 3701.12 862.559 3701.12 848.478 3701.12 834.397 3712.54 822.978 3726.62 822.978 3740.71 822.978 3752.12 834.397 3752.12 848.478Z" stroke="#FC6255" stroke-width="10.175" stroke-miterlimit="8" fill="#FC6255" fill-rule="evenodd"/><path d="M4031.14 1500.51C4031.14 1514.59 4019.73 1526.01 4005.64 1526.01 3991.56 1526.01 3980.14 1514.59 3980.14 1500.51 3980.14 1486.42 3991.56 1475.01 4005.64 1475.01 4019.73 1475.01 4031.14 1486.42 4031.14 1500.51Z" stroke="#FC6255" stroke-width="10.175" stroke-miterlimit="8" fill="#FC6255" fill-rule="evenodd"/><path d="M3929.14 1500.51C3929.14 1514.59 3917.72 1526.01 3903.64 1526.01 3889.55 1526.01 3878.14 1514.59 3878.14 1500.51 3878.14 1486.42 3889.55 1475.01 3903.64 1475.01 3917.72 1475.01 3929.14 1486.42 3929.14 1500.51Z" stroke="#FC6255" stroke-width="10.175" stroke-miterlimit="8" fill="#FC6255" fill-rule="evenodd"/><path d="M3801.13 1449.5C3801.13 1463.58 3789.71 1475 3775.63 1475 3761.54 1475 3750.13 1463.58 3750.13 1449.5 3750.13 1435.42 3761.54 1424 3775.63 1424 3789.71 1424 3801.13 1435.42 3801.13 1449.5Z" stroke="#FC6255" stroke-width="10.175" stroke-miterlimit="8" fill="#FC6255" fill-rule="evenodd"/><path d="M3740.12 1434.5C3740.12 1448.58 3728.71 1460 3714.62 1460 3700.54 1460 3689.12 1448.58 3689.12 1434.5 3689.12 1420.42 3700.54 1409 3714.62 1409 3728.71 1409 3740.12 1420.42 3740.12 1434.5Z" stroke="#FC6255" stroke-width="10.175" stroke-miterlimit="8" fill="#FC6255" fill-rule="evenodd"/><path d="M3623.12 1474.5C3623.12 1488.59 3611.7 1500 3597.62 1500 3583.53 1500 3572.11 1488.59 3572.11 1474.5 3572.11 1460.42 3583.53 1449 3597.62 1449 3611.7 1449 3623.12 1460.42 3623.12 1474.5Z" stroke="#FC6255" stroke-width="10.175" stroke-miterlimit="8" fill="#FC6255" fill-rule="evenodd"/><path d="M3521.11 1500.51C3521.11 1514.59 3509.69 1526.01 3495.61 1526.01 3481.52 1526.01 3470.11 1514.59 3470.11 1500.51 3470.11 1486.42 3481.52 1475.01 3495.61 1475.01 3509.69 1475.01 3521.11 1486.42 3521.11 1500.51Z" stroke="#FC6255" stroke-width="10.175" stroke-miterlimit="8" fill="#FC6255" fill-rule="evenodd"/><path d="M3572.11 1525.51C3572.11 1539.59 3560.69 1551.01 3546.61 1551.01 3532.53 1551.01 3521.11 1539.59 3521.11 1525.51 3521.11 1511.43 3532.53 1500.01 3546.61 1500.01 3560.69 1500.01 3572.11 1511.43 3572.11 1525.51Z" stroke="#FC6255" stroke-width="10.175" stroke-miterlimit="8" fill="#FC6255" fill-rule="evenodd"/><path d="M3674.12 1525.51C3674.12 1539.59 3662.7 1551.01 3648.62 1551.01 3634.54 1551.01 3623.12 1539.59 3623.12 1525.51 3623.12 1511.43 3634.54 1500.01 3648.62 1500.01 3662.7 1500.01 3674.12 1511.43 3674.12 1525.51Z" stroke="#FC6255" stroke-width="10.175" stroke-miterlimit="8" fill="#FC6255" fill-rule="evenodd"/><path d="M3750.12 1500.51C3750.12 1514.59 3738.93 1526.01 3725.12 1526.01 3711.31 1526.01 3700.12 1514.59 3700.12 1500.51 3700.12 1486.42 3711.31 1475.01 3725.12 1475.01 3738.93 1475.01 3750.12 1486.42 3750.12 1500.51Z" stroke="#FC6255" stroke-width="10.175" stroke-miterlimit="8" fill="#FC6255" fill-rule="evenodd"/><path d="M3914.12 1432.51C3914.12 1446.59 3902.93 1458.01 3889.13 1458.01 3875.32 1458.01 3864.12 1446.59 3864.12 1432.51 3864.12 1418.42 3875.32 1407.01 3889.13 1407.01 3902.93 1407.01 3914.12 1418.42 3914.12 1432.51Z" stroke="#FC6255" stroke-width="10.175" stroke-miterlimit="8" fill="#FC6255" fill-rule="evenodd"/><path d="M3868.13 1485.5C3868.13 1499.59 3856.72 1511.01 3842.63 1511.01 3828.55 1511.01 3817.13 1499.59 3817.13 1485.5 3817.13 1471.42 3828.55 1460 3842.63 1460 3856.72 1460 3868.13 1471.42 3868.13 1485.5Z" stroke="#FC6255" stroke-width="10.175" stroke-miterlimit="8" fill="#FC6255" fill-rule="evenodd"/><path d="M3975.14 1454.5C3975.14 1468.58 3963.72 1480 3949.64 1480 3935.56 1480 3924.14 1468.58 3924.14 1454.5 3924.14 1440.42 3935.56 1429 3949.64 1429 3963.72 1429 3975.14 1440.42 3975.14 1454.5Z" stroke="#FC6255" stroke-width="10.175" stroke-miterlimit="8" fill="#FC6255" fill-rule="evenodd"/><path d="M4025.14 1747.01C4025.14 1760.81 4013.95 1772.01 4000.14 1772.01 3986.33 1772.01 3975.14 1760.81 3975.14 1747.01 3975.14 1733.2 3986.33 1722.01 4000.14 1722.01 4013.95 1722.01 4025.14 1733.2 4025.14 1747.01Z" stroke="#FC6255" stroke-width="10.175" stroke-miterlimit="8" fill="#FC6255" fill-rule="evenodd"/><path d="M3924.14 1747.01C3924.14 1760.81 3912.72 1772.01 3898.64 1772.01 3884.55 1772.01 3873.14 1760.81 3873.14 1747.01 3873.14 1733.2 3884.55 1722.01 3898.64 1722.01 3912.72 1722.01 3924.14 1733.2 3924.14 1747.01Z" stroke="#FC6255" stroke-width="10.175" stroke-miterlimit="8" fill="#FC6255" fill-rule="evenodd"/><path d="M3796.13 1696.5C3796.13 1710.58 3784.71 1722 3770.63 1722 3756.54 1722 3745.13 1710.58 3745.13 1696.5 3745.13 1682.42 3756.54 1671 3770.63 1671 3784.71 1671 3796.13 1682.42 3796.13 1696.5Z" stroke="#FC6255" stroke-width="10.175" stroke-miterlimit="8" fill="#FC6255" fill-rule="evenodd"/><path d="M3735.12 1680.5C3735.12 1694.58 3723.71 1706 3709.62 1706 3695.54 1706 3684.12 1694.58 3684.12 1680.5 3684.12 1666.42 3695.54 1655 3709.62 1655 3723.71 1655 3735.12 1666.42 3735.12 1680.5Z" stroke="#FC6255" stroke-width="10.175" stroke-miterlimit="8" fill="#FC6255" fill-rule="evenodd"/><path d="M3618.11 1721.5C3618.11 1735.59 3606.7 1747 3592.61 1747 3578.53 1747 3567.11 1735.59 3567.11 1721.5 3567.11 1707.42 3578.53 1696 3592.61 1696 3606.7 1696 3618.11 1707.42 3618.11 1721.5Z" stroke="#FC6255" stroke-width="10.175" stroke-miterlimit="8" fill="#FC6255" fill-rule="evenodd"/><path d="M3516.11 1747.01C3516.11 1760.81 3504.69 1772.01 3490.61 1772.01 3476.52 1772.01 3465.11 1760.81 3465.11 1747.01 3465.11 1733.2 3476.52 1722.01 3490.61 1722.01 3504.69 1722.01 3516.11 1733.2 3516.11 1747.01Z" stroke="#FC6255" stroke-width="10.175" stroke-miterlimit="8" fill="#FC6255" fill-rule="evenodd"/><path d="M3567.11 1772.51C3567.11 1786.59 3555.69 1798.01 3541.61 1798.01 3527.53 1798.01 3516.11 1786.59 3516.11 1772.51 3516.11 1758.43 3527.53 1747.01 3541.61 1747.01 3555.69 1747.01 3567.11 1758.43 3567.11 1772.51Z" stroke="#FC6255" stroke-width="10.175" stroke-miterlimit="8" fill="#FC6255" fill-rule="evenodd"/><path d="M3669.12 1772.51C3669.12 1786.59 3657.7 1798.01 3643.62 1798.01 3629.54 1798.01 3618.12 1786.59 3618.12 1772.51 3618.12 1758.43 3629.54 1747.01 3643.62 1747.01 3657.7 1747.01 3669.12 1758.43 3669.12 1772.51Z" stroke="#FC6255" stroke-width="10.175" stroke-miterlimit="8" fill="#FC6255" fill-rule="evenodd"/><path d="M3745.12 1747.01C3745.12 1760.81 3733.71 1772.01 3719.62 1772.01 3705.54 1772.01 3694.12 1760.81 3694.12 1747.01 3694.12 1733.2 3705.54 1722.01 3719.62 1722.01 3733.71 1722.01 3745.12 1733.2 3745.12 1747.01Z" stroke="#FC6255" stroke-width="10.175" stroke-miterlimit="8" fill="#FC6255" fill-rule="evenodd"/><path d="M3796.13 1747.01C3796.13 1760.81 3784.71 1772.01 3770.63 1772.01 3756.54 1772.01 3745.13 1760.81 3745.13 1747.01 3745.13 1733.2 3756.54 1722.01 3770.63 1722.01 3784.71 1722.01 3796.13 1733.2 3796.13 1747.01Z" stroke="#FC6255" stroke-width="10.175" stroke-miterlimit="8" fill="#FC6255" fill-rule="evenodd"/><path d="M3862.13 1731.5C3862.13 1745.59 3850.94 1757 3837.13 1757 3823.32 1757 3812.13 1745.59 3812.13 1731.5 3812.13 1717.42 3823.32 1706.01 3837.13 1706.01 3850.94 1706.01 3862.13 1717.42 3862.13 1731.5Z" stroke="#FC6255" stroke-width="10.175" stroke-miterlimit="8" fill="#FC6255" fill-rule="evenodd"/><path d="M3969.14 1701.5C3969.14 1715.58 3957.72 1727 3943.64 1727 3929.56 1727 3918.14 1715.58 3918.14 1701.5 3918.14 1687.42 3929.56 1676 3943.64 1676 3957.72 1676 3969.14 1687.42 3969.14 1701.5Z" stroke="#FC6255" stroke-width="10.175" stroke-miterlimit="8" fill="#FC6255" fill-rule="evenodd"/><path d="M4042.14 659.506C4042.14 673.587 4030.73 685.006 4016.64 685.006 4002.56 685.006 3991.14 673.587 3991.14 659.506 3991.14 645.425 4002.56 634.006 4016.64 634.006 4030.73 634.006 4042.14 645.425 4042.14 659.506Z" stroke="#FC6255" stroke-width="10.175" stroke-miterlimit="8" fill="#FC6255" fill-rule="evenodd"/><path d="M3942.14 695.506C3942.14 709.587 3930.72 721.006 3916.64 721.006 3902.55 721.006 3891.14 709.587 3891.14 695.506 3891.14 681.425 3902.55 670.006 3916.64 670.006 3930.72 670.006 3942.14 681.425 3942.14 695.506Z" stroke="#FC6255" stroke-width="10.175" stroke-miterlimit="8" fill="#FC6255" fill-rule="evenodd"/><path d="M3813.13 608.502C3813.13 622.583 3801.71 634.002 3787.63 634.002 3773.54 634.002 3762.13 622.583 3762.13 608.502 3762.13 594.421 3773.54 583.003 3787.63 583.003 3801.71 583.003 3813.13 594.421 3813.13 608.502Z" stroke="#FC6255" stroke-width="10.175" stroke-miterlimit="8" fill="#FC6255" fill-rule="evenodd"/><path d="M3752.12 593.001C3752.12 606.806 3740.71 618.001 3726.62 618.001 3712.54 618.001 3701.12 606.806 3701.12 593.001 3701.12 579.196 3712.54 568.001 3726.62 568.001 3740.71 568.001 3752.12 579.196 3752.12 593.001Z" stroke="#FC6255" stroke-width="10.175" stroke-miterlimit="8" fill="#FC6255" fill-rule="evenodd"/><path d="M3634.11 633.504C3634.11 647.585 3622.92 659.004 3609.11 659.004 3595.31 659.004 3584.11 647.585 3584.11 633.504 3584.11 619.423 3595.31 608.004 3609.11 608.004 3622.92 608.004 3634.11 619.423 3634.11 633.504Z" stroke="#FC6255" stroke-width="10.175" stroke-miterlimit="8" fill="#FC6255" fill-rule="evenodd"/><path d="M3533.11 659.506C3533.11 673.587 3521.69 685.006 3507.61 685.006 3493.52 685.006 3482.11 673.587 3482.11 659.506 3482.11 645.425 3493.52 634.006 3507.61 634.006 3521.69 634.006 3533.11 645.425 3533.11 659.506Z" stroke="#FC6255" stroke-width="10.175" stroke-miterlimit="8" fill="#FC6255" fill-rule="evenodd"/><path d="M3584.11 684.508C3584.11 698.589 3572.69 710.008 3558.61 710.008 3544.53 710.008 3533.11 698.589 3533.11 684.508 3533.11 670.427 3544.53 659.008 3558.61 659.008 3572.69 659.008 3584.11 670.427 3584.11 684.508Z" stroke="#FC6255" stroke-width="10.175" stroke-miterlimit="8" fill="#FC6255" fill-rule="evenodd"/><path d="M3685.12 684.508C3685.12 698.589 3673.7 710.008 3659.62 710.008 3645.54 710.008 3634.12 698.589 3634.12 684.508 3634.12 670.427 3645.54 659.008 3659.62 659.008 3673.7 659.008 3685.12 670.427 3685.12 684.508Z" stroke="#FC6255" stroke-width="10.175" stroke-miterlimit="8" fill="#FC6255" fill-rule="evenodd"/><path d="M3584.12 600.506C3584.12 614.587 3572.71 626.006 3558.62 626.006 3544.54 626.006 3533.12 614.587 3533.12 600.506 3533.12 586.425 3544.54 575.006 3558.62 575.006 3572.71 575.006 3584.12 586.425 3584.12 600.506Z" stroke="#FC6255" stroke-width="10.175" stroke-miterlimit="8" fill="#FC6255" fill-rule="evenodd"/><path d="M3813.13 659.506C3813.13 673.587 3801.71 685.006 3787.63 685.006 3773.54 685.006 3762.13 673.587 3762.13 659.506 3762.13 645.425 3773.54 634.006 3787.63 634.006 3801.71 634.006 3813.13 645.425 3813.13 659.506Z" stroke="#FC6255" stroke-width="10.175" stroke-miterlimit="8" fill="#FC6255" fill-rule="evenodd"/><path d="M3884.13 609.505C3884.13 623.586 3872.72 635.005 3858.63 635.005 3844.55 635.005 3833.13 623.586 3833.13 609.505 3833.13 595.424 3844.55 584.005 3858.63 584.005 3872.72 584.005 3884.13 595.424 3884.13 609.505Z" stroke="#FC6255" stroke-width="10.175" stroke-miterlimit="8" fill="#FC6255" fill-rule="evenodd"/><path d="M3986.14 613.503C3986.14 627.584 3974.72 639.003 3960.64 639.003 3946.56 639.003 3935.14 627.584 3935.14 613.503 3935.14 599.422 3946.56 588.003 3960.64 588.003 3974.72 588.003 3986.14 599.422 3986.14 613.503Z" stroke="#FC6255" stroke-width="10.175" stroke-miterlimit="8" fill="#FC6255" fill-rule="evenodd"/><path d="M3749.12 673.978C3749.12 687.783 3737.71 698.978 3723.62 698.978 3709.54 698.978 3698.12 687.783 3698.12 673.978 3698.12 660.173 3709.54 648.978 3723.62 648.978 3737.71 648.978 3749.12 660.173 3749.12 673.978Z" stroke="#FC6255" stroke-width="10.175" stroke-miterlimit="8" fill="#FC6255" fill-rule="evenodd"/><path d="M3506.12 1428.49C3506.12 1442.57 3494.7 1453.99 3480.62 1453.99 3466.54 1453.99 3455.12 1442.57 3455.12 1428.49 3455.12 1414.4 3466.54 1402.99 3480.62 1402.99 3494.7 1402.99 3506.12 1414.4 3506.12 1428.49Z" stroke="#FC6255" stroke-width="10.175" stroke-miterlimit="8" fill="#FC6255" fill-rule="evenodd"/><path d="M3623.12 1828.5C3623.12 1842.59 3611.7 1854 3597.62 1854 3583.53 1854 3572.11 1842.59 3572.11 1828.5 3572.11 1814.42 3583.53 1803 3597.62 1803 3611.7 1803 3623.12 1814.42 3623.12 1828.5Z" stroke="#FC6255" stroke-width="10.175" stroke-miterlimit="8" fill="#FC6255" fill-rule="evenodd"/><path d="M3877.12 1795.51C3877.12 1809.59 3865.71 1821.01 3851.62 1821.01 3837.54 1821.01 3826.12 1809.59 3826.12 1795.51 3826.12 1781.42 3837.54 1770.01 3851.62 1770.01 3865.71 1770.01 3877.12 1781.42 3877.12 1795.51Z" stroke="#FC6255" stroke-width="10.175" stroke-miterlimit="8" fill="#FC6255" fill-rule="evenodd"/><path d="M3886.12 1664.51C3886.12 1678.59 3874.71 1690.01 3860.62 1690.01 3846.54 1690.01 3835.12 1678.59 3835.12 1664.51 3835.12 1650.42 3846.54 1639.01 3860.62 1639.01 3874.71 1639.01 3886.12 1650.42 3886.12 1664.51Z" stroke="#FC6255" stroke-width="10.175" stroke-miterlimit="8" fill="#FC6255" fill-rule="evenodd"/><path d="M3562.12 1683.51C3562.12 1697.59 3550.71 1709.01 3536.62 1709.01 3522.54 1709.01 3511.12 1697.59 3511.12 1683.51 3511.12 1669.42 3522.54 1658.01 3536.62 1658.01 3550.71 1658.01 3562.12 1669.42 3562.12 1683.51Z" stroke="#FC6255" stroke-width="10.175" stroke-miterlimit="8" fill="#FC6255" fill-rule="evenodd"/><path d="M3633.12 1427.51C3633.12 1441.59 3621.71 1453.01 3607.62 1453.01 3593.54 1453.01 3582.12 1441.59 3582.12 1427.51 3582.12 1413.42 3593.54 1402.01 3607.62 1402.01 3621.71 1402.01 3633.12 1413.42 3633.12 1427.51Z" stroke="#FC6255" stroke-width="10.175" stroke-miterlimit="8" fill="#FC6255" fill-rule="evenodd"/><path d="M3884.14 671.506C3884.14 685.587 3872.72 697.006 3858.64 697.006 3844.55 697.006 3833.14 685.587 3833.14 671.506 3833.14 657.425 3844.55 646.006 3858.64 646.006 3872.72 646.006 3884.14 657.425 3884.14 671.506Z" stroke="#FC6255" stroke-width="10.175" stroke-miterlimit="8" fill="#FC6255" fill-rule="evenodd"/></g></svg>