<svg width="390" height="338" xmlns="http://www.w3.org/2000/svg" xmlns:xlink="http://www.w3.org/1999/xlink" overflow="hidden"><defs><clipPath id="clip0"><rect x="3103" y="996" width="390" height="338"/></clipPath></defs><g clip-path="url(#clip0)" transform="translate(-3103 -996)"><path d="M3195.61 1052.48C3195.61 1061.87 3188 1069.48 3178.61 1069.48 3169.22 1069.48 3161.61 1061.87 3161.61 1052.48 3161.61 1043.09 3169.22 1035.48 3178.61 1035.48 3188 1035.48 3195.61 1043.09 3195.61 1052.48Z" stroke="#FC6255" stroke-width="6.875" stroke-miterlimit="8" fill="#FC6255" fill-rule="evenodd"/><path d="M3220.62 1096.98C3220.62 1106.65 3212.78 1114.48 3203.12 1114.48 3193.45 1114.48 3185.62 1106.65 3185.62 1096.98 3185.62 1087.32 3193.45 1079.48 3203.12 1079.48 3212.78 1079.48 3220.62 1087.32 3220.62 1096.98Z" stroke="#FC6255" stroke-width="6.875" stroke-miterlimit="8" fill="#FC6255" fill-rule="evenodd"/><path d="M3264.62 1052.48C3264.62 1061.87 3257.01 1069.48 3247.62 1069.48 3238.23 1069.48 3230.62 1061.87 3230.62 1052.48 3230.62 1043.09 3238.23 1035.48 3247.62 1035.48 3257.01 1035.48 3264.62 1043.09 3264.62 1052.48Z" stroke="#FC6255" stroke-width="6.875" stroke-miterlimit="8" fill="#FC6255" fill-rule="evenodd"/><path d="M3350.63 1017.98C3350.63 1027.64 3343.02 1035.48 3333.63 1035.48 3324.24 1035.48 3316.63 1027.64 3316.63 1017.98 3316.63 1008.31 3324.24 1000.48 3333.63 1000.48 3343.02 1000.48 3350.63 1008.31 3350.63 1017.98Z" stroke="#FC6255" stroke-width="6.875" stroke-miterlimit="8" fill="#FC6255" fill-rule="evenodd"/><path d="M3350.63 1069.48C3350.63 1078.87 3343.02 1086.48 3333.63 1086.48 3324.24 1086.48 3316.63 1078.87 3316.63 1069.48 3316.63 1060.1 3324.24 1052.48 3333.63 1052.48 3343.02 1052.48 3350.63 1060.1 3350.63 1069.48Z" stroke="#FC6255" stroke-width="6.875" stroke-miterlimit="8" fill="#FC6255" fill-rule="evenodd"/><path d="M3305.62 1079.98C3305.62 1089.65 3298.01 1097.48 3288.62 1097.48 3279.23 1097.48 3271.62 1089.65 3271.62 1079.98 3271.62 1070.32 3279.23 1062.48 3288.62 1062.48 3298.01 1062.48 3305.62 1070.32 3305.62 1079.98Z" stroke="#FC6255" stroke-width="6.875" stroke-miterlimit="8" fill="#FC6255" fill-rule="evenodd"/><path d="M3391.63 1045.48C3391.63 1054.87 3384.02 1062.48 3374.63 1062.48 3365.24 1062.48 3357.63 1054.87 3357.63 1045.48 3357.63 1036.09 3365.24 1028.48 3374.63 1028.48 3384.02 1028.48 3391.63 1036.09 3391.63 1045.48Z" stroke="#FC6255" stroke-width="6.875" stroke-miterlimit="8" fill="#FC6255" fill-rule="evenodd"/><path d="M3436.64 1069.48C3436.64 1078.87 3429.03 1086.48 3419.64 1086.48 3410.25 1086.48 3402.64 1078.87 3402.64 1069.48 3402.64 1060.1 3410.25 1052.48 3419.64 1052.48 3429.03 1052.48 3436.64 1060.1 3436.64 1069.48Z" stroke="#FC6255" stroke-width="6.875" stroke-miterlimit="8" fill="#FC6255" fill-rule="evenodd"/><path d="M3488.65 1052.48C3488.65 1061.87 3480.81 1069.48 3471.15 1069.48 3461.48 1069.48 3453.65 1061.87 3453.65 1052.48 3453.65 1043.09 3461.48 1035.48 3471.15 1035.48 3480.81 1035.48 3488.65 1043.09 3488.65 1052.48Z" stroke="#FC6255" stroke-width="6.875" stroke-miterlimit="8" fill="#FC6255" fill-rule="evenodd"/><path d="M3443.64 1028.48C3443.64 1037.87 3436.03 1045.48 3426.64 1045.48 3417.25 1045.48 3409.64 1037.87 3409.64 1028.48 3409.64 1019.09 3417.25 1011.48 3426.64 1011.48 3436.03 1011.48 3443.64 1019.09 3443.64 1028.48Z" stroke="#FC6255" stroke-width="6.875" stroke-miterlimit="8" fill="#FC6255" fill-rule="evenodd"/><path d="M3477.64 1096.98C3477.64 1106.65 3470.03 1114.48 3460.64 1114.48 3451.25 1114.48 3443.64 1106.65 3443.64 1096.98 3443.64 1087.32 3451.25 1079.48 3460.64 1079.48 3470.03 1079.48 3477.64 1087.32 3477.64 1096.98Z" stroke="#FC6255" stroke-width="6.875" stroke-miterlimit="8" fill="#FC6255" fill-rule="evenodd"/><path d="M3484.64 1243C3484.64 1252.66 3477.03 1260.5 3467.64 1260.5 3458.25 1260.5 3450.64 1252.66 3450.64 1243 3450.64 1233.34 3458.25 1225.5 3467.64 1225.5 3477.03 1225.5 3484.64 1233.34 3484.64 1243Z" stroke="#FC6255" stroke-width="6.875" stroke-miterlimit="8" fill="#FC6255" fill-rule="evenodd"/><path d="M3484.64 1294.51C3484.64 1303.89 3477.03 1311.51 3467.64 1311.51 3458.25 1311.51 3450.64 1303.89 3450.64 1294.51 3450.64 1285.12 3458.25 1277.51 3467.64 1277.51 3477.03 1277.51 3484.64 1285.12 3484.64 1294.51Z" stroke="#FC6255" stroke-width="6.875" stroke-miterlimit="8" fill="#FC6255" fill-rule="evenodd"/><path d="M3415.64 1243C3415.64 1252.66 3408.02 1260.5 3398.64 1260.5 3389.25 1260.5 3381.64 1252.66 3381.64 1243 3381.64 1233.34 3389.25 1225.5 3398.64 1225.5 3408.02 1225.5 3415.64 1233.34 3415.64 1243Z" stroke="#FC6255" stroke-width="6.875" stroke-miterlimit="8" fill="#FC6255" fill-rule="evenodd"/><path d="M3415.64 1294.51C3415.64 1303.89 3408.02 1311.51 3398.64 1311.51 3389.25 1311.51 3381.64 1303.89 3381.64 1294.51 3381.64 1285.12 3389.25 1277.51 3398.64 1277.51 3408.02 1277.51 3415.64 1285.12 3415.64 1294.51Z" stroke="#FC6255" stroke-width="6.875" stroke-miterlimit="8" fill="#FC6255" fill-rule="evenodd"/><path d="M3364.63 1243C3364.63 1252.66 3357.02 1260.5 3347.63 1260.5 3338.24 1260.5 3330.63 1252.66 3330.63 1243 3330.63 1233.34 3338.24 1225.5 3347.63 1225.5 3357.02 1225.5 3364.63 1233.34 3364.63 1243Z" stroke="#FC6255" stroke-width="6.875" stroke-miterlimit="8" fill="#FC6255" fill-rule="evenodd"/><path d="M3330.63 1260.5C3330.63 1269.89 3322.79 1277.5 3313.13 1277.5 3303.46 1277.5 3295.63 1269.89 3295.63 1260.5 3295.63 1251.11 3303.46 1243.5 3313.13 1243.5 3322.79 1243.5 3330.63 1251.11 3330.63 1260.5Z" stroke="#FC6255" stroke-width="6.875" stroke-miterlimit="8" fill="#FC6255" fill-rule="evenodd"/><path d="M3288.62 1250C3288.62 1259.66 3281.01 1267.5 3271.62 1267.5 3262.23 1267.5 3254.62 1259.66 3254.62 1250 3254.62 1240.34 3262.23 1232.5 3271.62 1232.5 3281.01 1232.5 3288.62 1240.34 3288.62 1250Z" stroke="#FC6255" stroke-width="6.875" stroke-miterlimit="8" fill="#FC6255" fill-rule="evenodd"/><path d="M3240.62 1246.5C3240.62 1255.89 3233.01 1263.5 3223.62 1263.5 3214.23 1263.5 3206.62 1255.89 3206.62 1246.5 3206.62 1237.11 3214.23 1229.5 3223.62 1229.5 3233.01 1229.5 3240.62 1237.11 3240.62 1246.5Z" stroke="#FC6255" stroke-width="6.875" stroke-miterlimit="8" fill="#FC6255" fill-rule="evenodd"/><path d="M3209.61 1277.5C3209.61 1286.89 3202 1294.5 3192.61 1294.5 3183.22 1294.5 3175.61 1286.89 3175.61 1277.5 3175.61 1268.12 3183.22 1260.5 3192.61 1260.5 3202 1260.5 3209.61 1268.12 3209.61 1277.5Z" stroke="#FC6255" stroke-width="6.875" stroke-miterlimit="8" fill="#FC6255" fill-rule="evenodd"/><path d="M3175.61 1243C3175.61 1252.66 3167.78 1260.5 3158.11 1260.5 3148.45 1260.5 3140.61 1252.66 3140.61 1243 3140.61 1233.34 3148.45 1225.5 3158.11 1225.5 3167.78 1225.5 3175.61 1233.34 3175.61 1243Z" stroke="#FC6255" stroke-width="6.875" stroke-miterlimit="8" fill="#FC6255" fill-rule="evenodd"/><path d="M3140.61 1294.51C3140.61 1303.89 3133 1311.51 3123.61 1311.51 3114.22 1311.51 3106.61 1303.89 3106.61 1294.51 3106.61 1285.12 3114.22 1277.51 3123.61 1277.51 3133 1277.51 3140.61 1285.12 3140.61 1294.51Z" stroke="#FC6255" stroke-width="6.875" stroke-miterlimit="8" fill="#FC6255" fill-rule="evenodd"/><path d="M3175.61 1312.01C3175.61 1321.67 3167.78 1329.51 3158.11 1329.51 3148.45 1329.51 3140.61 1321.67 3140.61 1312.01 3140.61 1302.34 3148.45 1294.51 3158.11 1294.51 3167.78 1294.51 3175.61 1302.34 3175.61 1312.01Z" stroke="#FC6255" stroke-width="6.875" stroke-miterlimit="8" fill="#FC6255" fill-rule="evenodd"/><path d="M3244.62 1312.01C3244.62 1321.67 3236.79 1329.51 3227.12 1329.51 3217.46 1329.51 3209.62 1321.67 3209.62 1312.01 3209.62 1302.34 3217.46 1294.51 3227.12 1294.51 3236.79 1294.51 3244.62 1302.34 3244.62 1312.01Z" stroke="#FC6255" stroke-width="6.875" stroke-miterlimit="8" fill="#FC6255" fill-rule="evenodd"/><path d="M3295.62 1294.51C3295.62 1303.89 3288.01 1311.51 3278.62 1311.51 3269.23 1311.51 3261.62 1303.89 3261.62 1294.51 3261.62 1285.12 3269.23 1277.51 3278.62 1277.51 3288.01 1277.51 3295.62 1285.12 3295.62 1294.51Z" stroke="#FC6255" stroke-width="6.875" stroke-miterlimit="8" fill="#FC6255" fill-rule="evenodd"/><path d="M3330.63 1294.51C3330.63 1303.89 3322.79 1311.51 3313.13 1311.51 3303.46 1311.51 3295.63 1303.89 3295.63 1294.51 3295.63 1285.12 3303.46 1277.51 3313.13 1277.51 3322.79 1277.51 3330.63 1285.12 3330.63 1294.51Z" stroke="#FC6255" stroke-width="6.875" stroke-miterlimit="8" fill="#FC6255" fill-rule="evenodd"/><path d="M3374.63 1284.5C3374.63 1293.89 3367.02 1301.5 3357.63 1301.5 3348.24 1301.5 3340.63 1293.89 3340.63 1284.5 3340.63 1275.12 3348.24 1267.5 3357.63 1267.5 3367.02 1267.5 3374.63 1275.12 3374.63 1284.5Z" stroke="#FC6255" stroke-width="6.875" stroke-miterlimit="8" fill="#FC6255" fill-rule="evenodd"/><path d="M3446.64 1263.5C3446.64 1272.89 3439.03 1280.5 3429.64 1280.5 3420.25 1280.5 3412.64 1272.89 3412.64 1263.5 3412.64 1254.12 3420.25 1246.5 3429.64 1246.5 3439.03 1246.5 3446.64 1254.12 3446.64 1263.5Z" stroke="#FC6255" stroke-width="6.875" stroke-miterlimit="8" fill="#FC6255" fill-rule="evenodd"/><path d="M3233.62 1022.98C3233.62 1032.64 3226 1040.48 3216.62 1040.48 3207.23 1040.48 3199.62 1032.64 3199.62 1022.98 3199.62 1013.31 3207.23 1005.48 3216.62 1005.48 3226 1005.48 3233.62 1013.31 3233.62 1022.98Z" stroke="#FC6255" stroke-width="6.875" stroke-miterlimit="8" fill="#FC6255" fill-rule="evenodd"/><path d="M3168.61 1096.98C3168.61 1106.65 3161 1114.48 3151.61 1114.48 3142.22 1114.48 3134.61 1106.65 3134.61 1096.98 3134.61 1087.32 3142.22 1079.48 3151.61 1079.48 3161 1079.48 3168.61 1087.32 3168.61 1096.98Z" stroke="#FC6255" stroke-width="6.875" stroke-miterlimit="8" fill="#FC6255" fill-rule="evenodd"/><path d="M3264.62 1103.99C3264.62 1113.65 3257.01 1121.49 3247.62 1121.49 3238.23 1121.49 3230.62 1113.65 3230.62 1103.99 3230.62 1094.32 3238.23 1086.49 3247.62 1086.49 3257.01 1086.49 3264.62 1094.32 3264.62 1103.99Z" stroke="#FC6255" stroke-width="6.875" stroke-miterlimit="8" fill="#FC6255" fill-rule="evenodd"/><path d="M3391.63 1096.98C3391.63 1106.65 3384.02 1114.48 3374.63 1114.48 3365.24 1114.48 3357.63 1106.65 3357.63 1096.98 3357.63 1087.32 3365.24 1079.48 3374.63 1079.48 3384.02 1079.48 3391.63 1087.32 3391.63 1096.98Z" stroke="#FC6255" stroke-width="6.875" stroke-miterlimit="8" fill="#FC6255" fill-rule="evenodd"/><path d="M3144.61 1052.48C3144.61 1061.87 3137 1069.48 3127.61 1069.48 3118.22 1069.48 3110.61 1061.87 3110.61 1052.48 3110.61 1043.09 3118.22 1035.48 3127.61 1035.48 3137 1035.48 3144.61 1043.09 3144.61 1052.48Z" stroke="#FC6255" stroke-width="6.875" stroke-miterlimit="8" fill="#FC6255" fill-rule="evenodd"/><path d="M3302.62 1028.48C3302.62 1037.87 3295.01 1045.48 3285.62 1045.48 3276.23 1045.48 3268.62 1037.87 3268.62 1028.48 3268.62 1019.09 3276.23 1011.48 3285.62 1011.48 3295.01 1011.48 3302.62 1019.09 3302.62 1028.48Z" stroke="#FC6255" stroke-width="6.875" stroke-miterlimit="8" fill="#FC6255" fill-rule="evenodd"/></g></svg>