<svg width="3661" height="2131" xmlns="http://www.w3.org/2000/svg" xmlns:xlink="http://www.w3.org/1999/xlink" overflow="hidden"><defs><clipPath id="clip0"><rect x="143" y="193" width="3661" height="2131"/></clipPath></defs><g clip-path="url(#clip0)" transform="translate(-143 -193)"><path d="M2350.29 2321.5C2349.78 2319.97 2423.12 1992.47 2151.64 1948.66 1678.46 1880.41 1039.74 1716.4 1198.15 1624.72 1356.56 1533.04 3071.51 1520.82 3102.08 1398.58 3132.64 1276.34 1505.79 1005.88 1381.51 891.276 1257.23 776.674 2174.05 827.099 2356.4 710.97 2538.74 594.841 2456.23 288.218 2475.58 194.5" stroke="#FFFFFF" stroke-width="4.58333" stroke-miterlimit="8" fill="none" fill-rule="evenodd"/><path d="M1198.24 1624.5C1351.55 1527.1 1161.32 989.159 788.759 1020.22 503.29 1046.22 298.038 1045.88 145.5 919.5" stroke="#FC6255" stroke-width="4.58333" stroke-miterlimit="8" fill="none" fill-rule="evenodd"/><path d="M3101.5 1398.5C3139.07 1275.33 3289.43 1267.12 3341.46 1228.94 3616.31 1088.35 3705.66 842.258 3801.5 740.5" stroke="#FC6255" stroke-width="4.58333" stroke-miterlimit="8" fill="none" fill-rule="evenodd"/><path d="M1381.5 891.5C1192.24 761.349 1311.65 710.351 945.412 493.888 811.518 422.512 895.328 248.442 896.173 248.5" stroke="#FC6255" stroke-width="4.58333" stroke-miterlimit="8" fill="none" fill-rule="evenodd"/></g></svg>