<svg width="2307" height="1484" xmlns="http://www.w3.org/2000/svg" xmlns:xlink="http://www.w3.org/1999/xlink" overflow="hidden"><defs><clipPath id="clip0"><rect x="783" y="448" width="2307" height="1484"/></clipPath></defs><g clip-path="url(#clip0)" transform="translate(-783 -448)"><path d="M1612.5 452.5 1662.5 452.5 1662.5 1014.5 1612.5 1014.5 1612.5 452.5Z" stroke="#FFFFFF" stroke-width="6.875" stroke-miterlimit="8" fill="none" fill-rule="evenodd"/><path d="M1609.5 1062.5 1660.5 1062.5 1660.5 1317.5 1609.5 1317.5 1609.5 1062.5Z" stroke="#FFFFFF" stroke-width="6.875" stroke-miterlimit="8" fill="none" fill-rule="evenodd"/><path d="M1609.5 1368.5 1660.5 1368.5 1660.5 1928.5 1609.5 1928.5 1609.5 1368.5Z" stroke="#FFFFFF" stroke-width="6.875" stroke-miterlimit="8" fill="none" fill-rule="evenodd"/><path d="M2271.5 451.5 2322.5 451.5 2322.5 1928.5 2271.5 1928.5 2271.5 451.5Z" stroke="#FFFFFF" stroke-width="6.875" stroke-miterlimit="8" fill="none" fill-rule="evenodd"/><path d="M2475.5 451.5 3086.5 451.5 3086.5 1928.5 2475.5 1928.5Z" stroke="#FFFFFF" stroke-width="6.875" stroke-miterlimit="8" fill="none" fill-rule="evenodd"/><path d="M849.988 1133.49C849.988 1147.57 838.571 1158.99 824.488 1158.99 810.404 1158.99 798.988 1147.57 798.988 1133.49 798.988 1119.41 810.404 1107.99 824.488 1107.99 838.571 1107.99 849.988 1119.41 849.988 1133.49Z" stroke="#FC6255" stroke-width="10.175" stroke-miterlimit="8" fill="#FC6255" fill-rule="evenodd"/><path d="M941.994 1296.5C941.994 1310.58 930.577 1322 916.494 1322 902.411 1322 890.994 1310.58 890.994 1296.5 890.994 1282.42 902.411 1271 916.494 1271 930.577 1271 941.994 1282.42 941.994 1296.5Z" stroke="#FC6255" stroke-width="10.175" stroke-miterlimit="8" fill="#FC6255" fill-rule="evenodd"/><path d="M1028 1362.51C1028 1376.59 1016.81 1388.01 1003 1388.01 989.193 1388.01 978 1376.59 978 1362.51 978 1348.42 989.193 1337 1003 1337 1016.81 1337 1028 1348.42 1028 1362.51Z" stroke="#FC6255" stroke-width="10.175" stroke-miterlimit="8" fill="#FC6255" fill-rule="evenodd"/><path d="M1359.02 1057.48C1359.02 1071.56 1347.83 1082.98 1334.02 1082.98 1320.22 1082.98 1309.02 1071.56 1309.02 1057.48 1309.02 1043.4 1320.22 1031.98 1334.02 1031.98 1347.83 1031.98 1359.02 1043.4 1359.02 1057.48Z" stroke="#FC6255" stroke-width="10.175" stroke-miterlimit="8" fill="#FC6255" fill-rule="evenodd"/><path d="M1120.01 1245.5C1120.01 1259.58 1108.59 1271 1094.51 1271 1080.42 1271 1069.01 1259.58 1069.01 1245.5 1069.01 1231.42 1080.42 1220 1094.51 1220 1108.59 1220 1120.01 1231.42 1120.01 1245.5Z" stroke="#FC6255" stroke-width="10.175" stroke-miterlimit="8" fill="#FC6255" fill-rule="evenodd"/><path d="M1237.02 1077.48C1237.02 1091.57 1225.6 1102.98 1211.52 1102.98 1197.43 1102.98 1186.02 1091.57 1186.02 1077.48 1186.02 1063.4 1197.43 1051.98 1211.52 1051.98 1225.6 1051.98 1237.02 1063.4 1237.02 1077.48Z" stroke="#FC6255" stroke-width="10.175" stroke-miterlimit="8" fill="#FC6255" fill-rule="evenodd"/><path d="M1482.03 1113.49C1482.03 1127.57 1470.62 1138.99 1456.53 1138.99 1442.45 1138.99 1431.03 1127.57 1431.03 1113.49 1431.03 1099.41 1442.45 1087.99 1456.53 1087.99 1470.62 1087.99 1482.03 1099.41 1482.03 1113.49Z" stroke="#FC6255" stroke-width="10.175" stroke-miterlimit="8" fill="#FC6255" fill-rule="evenodd"/><path d="M1553.04 1041.48C1553.04 1055.56 1541.62 1066.98 1527.54 1066.98 1513.45 1066.98 1502.04 1055.56 1502.04 1041.48 1502.04 1027.4 1513.45 1015.98 1527.54 1015.98 1541.62 1015.98 1553.04 1027.4 1553.04 1041.48Z" stroke="#FC6255" stroke-width="10.175" stroke-miterlimit="8" fill="#FC6255" fill-rule="evenodd"/><path d="M1441.03 1001.48C1441.03 1015.56 1429.61 1026.98 1415.53 1026.98 1401.45 1026.98 1390.03 1015.56 1390.03 1001.48 1390.03 987.398 1401.45 975.979 1415.53 975.979 1429.61 975.979 1441.03 987.398 1441.03 1001.48Z" stroke="#FC6255" stroke-width="10.175" stroke-miterlimit="8" fill="#FC6255" fill-rule="evenodd"/><path d="M1410.03 1184.49C1410.03 1198.57 1398.61 1209.99 1384.53 1209.99 1370.44 1209.99 1359.03 1198.57 1359.03 1184.49 1359.03 1170.41 1370.44 1158.99 1384.53 1158.99 1398.61 1158.99 1410.03 1170.41 1410.03 1184.49Z" stroke="#FC6255" stroke-width="10.175" stroke-miterlimit="8" fill="#FC6255" fill-rule="evenodd"/><path d="M1120.01 965.477C1120.01 979.558 1108.59 990.977 1094.51 990.977 1080.42 990.977 1069.01 979.558 1069.01 965.477 1069.01 951.396 1080.42 939.977 1094.51 939.977 1108.59 939.977 1120.01 951.396 1120.01 965.477Z" stroke="#FC6255" stroke-width="10.175" stroke-miterlimit="8" fill="#FC6255" fill-rule="evenodd"/><path d="M966.996 1143.49C966.996 1157.57 955.579 1168.99 941.496 1168.99 927.413 1168.99 915.996 1157.57 915.996 1143.49 915.996 1129.41 927.413 1117.99 941.496 1117.99 955.579 1117.99 966.996 1129.41 966.996 1143.49Z" stroke="#FC6255" stroke-width="10.175" stroke-miterlimit="8" fill="#FC6255" fill-rule="evenodd"/><path d="M1232.01 1184.49C1232.01 1198.57 1220.6 1209.99 1206.52 1209.99 1192.43 1209.99 1181.01 1198.57 1181.01 1184.49 1181.01 1170.41 1192.43 1158.99 1206.52 1158.99 1220.6 1158.99 1232.01 1170.41 1232.01 1184.49Z" stroke="#FC6255" stroke-width="10.175" stroke-miterlimit="8" fill="#FC6255" fill-rule="evenodd"/><path d="M1334.02 1337.5C1334.02 1351.58 1322.61 1363 1308.52 1363 1294.44 1363 1283.02 1351.58 1283.02 1337.5 1283.02 1323.42 1294.44 1312 1308.52 1312 1322.61 1312 1334.02 1323.42 1334.02 1337.5Z" stroke="#FC6255" stroke-width="10.175" stroke-miterlimit="8" fill="#FC6255" fill-rule="evenodd"/><path d="M1069 1067.48C1069 1081.57 1057.59 1092.98 1043.5 1092.98 1029.42 1092.98 1018 1081.57 1018 1067.48 1018 1053.4 1029.42 1041.98 1043.5 1041.98 1057.59 1041.98 1069 1053.4 1069 1067.48Z" stroke="#FC6255" stroke-width="10.175" stroke-miterlimit="8" fill="#FC6255" fill-rule="evenodd"/><path d="M1283.02 980.478C1283.02 994.559 1271.6 1005.98 1257.52 1005.98 1243.44 1005.98 1232.02 994.559 1232.02 980.478 1232.02 966.397 1243.44 954.978 1257.52 954.978 1271.6 954.978 1283.02 966.397 1283.02 980.478Z" stroke="#FC6255" stroke-width="10.175" stroke-miterlimit="8" fill="#FC6255" fill-rule="evenodd"/><path d="M1018 1245.5C1018 1259.58 1006.58 1271 992.5 1271 978.416 1271 967 1259.58 967 1245.5 967 1231.42 978.416 1220 992.5 1220 1006.58 1220 1018 1231.42 1018 1245.5Z" stroke="#FC6255" stroke-width="10.175" stroke-miterlimit="8" fill="#FC6255" fill-rule="evenodd"/><path d="M875.989 1260.5C875.989 1274.58 864.573 1286 850.49 1286 836.406 1286 824.99 1274.58 824.99 1260.5 824.99 1246.42 836.406 1235 850.49 1235 864.573 1235 875.989 1246.42 875.989 1260.5Z" stroke="#FC6255" stroke-width="10.175" stroke-miterlimit="8" fill="#FC6255" fill-rule="evenodd"/><path d="M870.989 1393.51C870.989 1407.59 859.572 1419.01 845.489 1419.01 831.406 1419.01 819.989 1407.59 819.989 1393.51 819.989 1379.43 831.406 1368.01 845.489 1368.01 859.572 1368.01 870.989 1379.43 870.989 1393.51Z" stroke="#FC6255" stroke-width="10.175" stroke-miterlimit="8" fill="#FC6255" fill-rule="evenodd"/><path d="M1405.03 1393.51C1405.03 1407.59 1393.61 1419.01 1379.53 1419.01 1365.44 1419.01 1354.03 1407.59 1354.03 1393.51 1354.03 1379.43 1365.44 1368.01 1379.53 1368.01 1393.61 1368.01 1405.03 1379.43 1405.03 1393.51Z" stroke="#FC6255" stroke-width="10.175" stroke-miterlimit="8" fill="#FC6255" fill-rule="evenodd"/><path d="M1344.02 1174.49C1344.02 1188.57 1332.61 1199.99 1318.52 1199.99 1304.44 1199.99 1293.02 1188.57 1293.02 1174.49 1293.02 1160.41 1304.44 1148.99 1318.52 1148.99 1332.61 1148.99 1344.02 1160.41 1344.02 1174.49Z" stroke="#FC6255" stroke-width="10.175" stroke-miterlimit="8" fill="#FC6255" fill-rule="evenodd"/><path d="M1191.01 1352.5C1191.01 1366.59 1179.82 1378 1166.01 1378 1152.2 1378 1141.01 1366.59 1141.01 1352.5 1141.01 1338.42 1152.2 1327 1166.01 1327 1179.82 1327 1191.01 1338.42 1191.01 1352.5Z" stroke="#FC6255" stroke-width="10.175" stroke-miterlimit="8" fill="#FC6255" fill-rule="evenodd"/><path d="M1130.01 1158.49C1130.01 1172.57 1118.59 1183.99 1104.51 1183.99 1090.42 1183.99 1079.01 1172.57 1079.01 1158.49 1079.01 1144.41 1090.42 1132.99 1104.51 1132.99 1118.59 1132.99 1130.01 1144.41 1130.01 1158.49Z" stroke="#FC6255" stroke-width="10.175" stroke-miterlimit="8" fill="#FC6255" fill-rule="evenodd"/><path d="M1293.02 1276.5C1293.02 1290.58 1281.6 1302 1267.52 1302 1253.44 1302 1242.02 1290.58 1242.02 1276.5 1242.02 1262.42 1253.44 1251 1267.52 1251 1281.6 1251 1293.02 1262.42 1293.02 1276.5Z" stroke="#FC6255" stroke-width="10.175" stroke-miterlimit="8" fill="#FC6255" fill-rule="evenodd"/><path d="M1507.03 1189.49C1507.03 1203.57 1495.62 1214.99 1481.53 1214.99 1467.45 1214.99 1456.03 1203.57 1456.03 1189.49 1456.03 1175.41 1467.45 1163.99 1481.53 1163.99 1495.62 1163.99 1507.03 1175.41 1507.03 1189.49Z" stroke="#FC6255" stroke-width="10.175" stroke-miterlimit="8" fill="#FC6255" fill-rule="evenodd"/><path d="M966.996 1041.48C966.996 1055.56 955.579 1066.98 941.496 1066.98 927.413 1066.98 915.996 1055.56 915.996 1041.48 915.996 1027.4 927.413 1015.98 941.496 1015.98 955.579 1015.98 966.996 1027.4 966.996 1041.48Z" stroke="#FC6255" stroke-width="10.175" stroke-miterlimit="8" fill="#FC6255" fill-rule="evenodd"/><path d="M1146.01 1041.48C1146.01 1055.56 1134.59 1066.98 1120.51 1066.98 1106.43 1066.98 1095.01 1055.56 1095.01 1041.48 1095.01 1027.4 1106.43 1015.98 1120.51 1015.98 1134.59 1015.98 1146.01 1027.4 1146.01 1041.48Z" stroke="#FC6255" stroke-width="10.175" stroke-miterlimit="8" fill="#FC6255" fill-rule="evenodd"/><path d="M839.987 990.479C839.987 1004.56 828.57 1015.98 814.487 1015.98 800.404 1015.98 788.987 1004.56 788.987 990.479 788.987 976.398 800.404 964.979 814.487 964.979 828.57 964.979 839.987 976.398 839.987 990.479Z" stroke="#FC6255" stroke-width="10.175" stroke-miterlimit="8" fill="#FC6255" fill-rule="evenodd"/><path d="M1477.03 1321.5C1477.03 1335.58 1465.62 1347 1451.53 1347 1437.45 1347 1426.03 1335.58 1426.03 1321.5 1426.03 1307.42 1437.45 1296 1451.53 1296 1465.62 1296 1477.03 1307.42 1477.03 1321.5Z" stroke="#FC6255" stroke-width="10.175" stroke-miterlimit="8" fill="#FC6255" fill-rule="evenodd"/><path d="M1578.04 1347.5C1578.04 1361.58 1566.85 1373 1553.04 1373 1539.23 1373 1528.04 1361.58 1528.04 1347.5 1528.04 1333.42 1539.23 1322 1553.04 1322 1566.85 1322 1578.04 1333.42 1578.04 1347.5Z" stroke="#FC6255" stroke-width="10.175" stroke-miterlimit="8" fill="#FC6255" fill-rule="evenodd"/><path d="M1375.02 1270.5C1375.02 1284.58 1363.61 1296 1349.53 1296 1335.44 1296 1324.03 1284.58 1324.03 1270.5 1324.03 1256.42 1335.44 1245 1349.53 1245 1363.61 1245 1375.02 1256.42 1375.02 1270.5Z" stroke="#FC6255" stroke-width="10.175" stroke-miterlimit="8" fill="#FC6255" fill-rule="evenodd"/><path d="M820.5 1564.19 1415 1564.19 1415 1584.81 820.5 1584.81ZM1404.68 1543.56 1466.56 1574.5 1404.68 1605.44Z" fill="#58C4DD"/></g></svg>