<svg width="1459" height="1004" xmlns="http://www.w3.org/2000/svg" xmlns:xlink="http://www.w3.org/1999/xlink" overflow="hidden"><defs><clipPath id="clip0"><rect x="1368" y="667" width="1459" height="1004"/></clipPath></defs><g clip-path="url(#clip0)" transform="translate(-1368 -667)"><path d="M0 0 429 0" stroke="#FFFFFF" stroke-width="6.875" stroke-miterlimit="8" stroke-dasharray="20.625 6.875" fill="none" fill-rule="evenodd" transform="matrix(1 0 0 -1 1943.5 1067.5)"/><path d="M1927.5 671.5 1961.5 671.5 1961.5 1050.5 1927.5 1050.5 1927.5 671.5Z" stroke="#FFFFFF" stroke-width="6.875" stroke-miterlimit="8" fill="none" fill-rule="evenodd"/><path d="M1925.5 1083.5 1959.5 1083.5 1959.5 1255.5 1925.5 1255.5 1925.5 1083.5Z" stroke="#FFFFFF" stroke-width="6.875" stroke-miterlimit="8" fill="none" fill-rule="evenodd"/><path d="M1925.5 1289.5 1959.5 1289.5 1959.5 1667.5 1925.5 1667.5 1925.5 1289.5Z" stroke="#FFFFFF" stroke-width="6.875" stroke-miterlimit="8" fill="none" fill-rule="evenodd"/><path d="M2372.5 670.5 2406.5 670.5 2406.5 1667.5 2372.5 1667.5 2372.5 670.5Z" stroke="#FFFFFF" stroke-width="6.875" stroke-miterlimit="8" fill="none" fill-rule="evenodd"/><path d="M2410.5 670.5 2823.5 670.5 2823.5 1667.5 2410.5 1667.5Z" stroke="#FFFFFF" stroke-width="6.875" stroke-miterlimit="8" fill="none" fill-rule="evenodd"/><path d="M0 0 423 0" stroke="#FFFFFF" stroke-width="6.875" stroke-miterlimit="8" stroke-dasharray="20.625 6.875" fill="none" fill-rule="evenodd" transform="matrix(1 0 0 -1 1945.5 1272.5)"/><path d="M1413.49 1131.49C1413.49 1140.88 1405.65 1148.49 1395.99 1148.49 1386.32 1148.49 1378.49 1140.88 1378.49 1131.49 1378.49 1122.1 1386.32 1114.49 1395.99 1114.49 1405.65 1114.49 1413.49 1122.1 1413.49 1131.49Z" stroke="#FC6255" stroke-width="6.875" stroke-miterlimit="8" fill="#FC6255" fill-rule="evenodd"/><path d="M1475.49 1241.5C1475.49 1250.89 1467.66 1258.5 1457.99 1258.5 1448.33 1258.5 1440.49 1250.89 1440.49 1241.5 1440.49 1232.11 1448.33 1224.5 1457.99 1224.5 1467.66 1224.5 1475.49 1232.11 1475.49 1241.5Z" stroke="#FC6255" stroke-width="6.875" stroke-miterlimit="8" fill="#FC6255" fill-rule="evenodd"/><path d="M1533.5 1286.01C1533.5 1295.67 1525.89 1303.51 1516.5 1303.51 1507.11 1303.51 1499.5 1295.67 1499.5 1286.01 1499.5 1276.34 1507.11 1268.51 1516.5 1268.51 1525.89 1268.51 1533.5 1276.34 1533.5 1286.01Z" stroke="#FC6255" stroke-width="6.875" stroke-miterlimit="8" fill="#FC6255" fill-rule="evenodd"/><path d="M1757.52 1079.98C1757.52 1089.65 1749.69 1097.48 1740.02 1097.48 1730.36 1097.48 1722.52 1089.65 1722.52 1079.98 1722.52 1070.32 1730.36 1062.48 1740.02 1062.48 1749.69 1062.48 1757.52 1070.32 1757.52 1079.98Z" stroke="#FC6255" stroke-width="6.875" stroke-miterlimit="8" fill="#FC6255" fill-rule="evenodd"/><path d="M1595.51 1207C1595.51 1216.66 1587.9 1224.5 1578.51 1224.5 1569.12 1224.5 1561.51 1216.66 1561.51 1207 1561.51 1197.33 1569.12 1189.5 1578.51 1189.5 1587.9 1189.5 1595.51 1197.33 1595.51 1207Z" stroke="#FC6255" stroke-width="6.875" stroke-miterlimit="8" fill="#FC6255" fill-rule="evenodd"/><path d="M1674.51 1093.49C1674.51 1102.87 1666.9 1110.49 1657.51 1110.49 1648.13 1110.49 1640.51 1102.87 1640.51 1093.49 1640.51 1084.1 1648.13 1076.49 1657.51 1076.49 1666.9 1076.49 1674.51 1084.1 1674.51 1093.49Z" stroke="#FC6255" stroke-width="6.875" stroke-miterlimit="8" fill="#FC6255" fill-rule="evenodd"/><path d="M1839.53 1117.49C1839.53 1126.88 1831.92 1134.49 1822.53 1134.49 1813.14 1134.49 1805.53 1126.88 1805.53 1117.49 1805.53 1108.1 1813.14 1100.49 1822.53 1100.49 1831.92 1100.49 1839.53 1108.1 1839.53 1117.49Z" stroke="#FC6255" stroke-width="6.875" stroke-miterlimit="8" fill="#FC6255" fill-rule="evenodd"/><path d="M1887.54 1069.48C1887.54 1078.87 1879.93 1086.48 1870.54 1086.48 1861.15 1086.48 1853.54 1078.87 1853.54 1069.48 1853.54 1060.1 1861.15 1052.48 1870.54 1052.48 1879.93 1052.48 1887.54 1060.1 1887.54 1069.48Z" stroke="#FC6255" stroke-width="6.875" stroke-miterlimit="8" fill="#FC6255" fill-rule="evenodd"/><path d="M1812.53 1041.98C1812.53 1051.64 1804.69 1059.48 1795.03 1059.48 1785.37 1059.48 1777.53 1051.64 1777.53 1041.98 1777.53 1032.32 1785.37 1024.48 1795.03 1024.48 1804.69 1024.48 1812.53 1032.32 1812.53 1041.98Z" stroke="#FC6255" stroke-width="6.875" stroke-miterlimit="8" fill="#FC6255" fill-rule="evenodd"/><path d="M1791.53 1165.99C1791.53 1175.66 1783.92 1183.49 1774.53 1183.49 1765.14 1183.49 1757.53 1175.66 1757.53 1165.99 1757.53 1156.33 1765.14 1148.49 1774.53 1148.49 1783.92 1148.49 1791.53 1156.33 1791.53 1165.99Z" stroke="#FC6255" stroke-width="6.875" stroke-miterlimit="8" fill="#FC6255" fill-rule="evenodd"/><path d="M1595.51 1017.98C1595.51 1027.64 1587.9 1035.48 1578.51 1035.48 1569.12 1035.48 1561.51 1027.64 1561.51 1017.98 1561.51 1008.31 1569.12 1000.48 1578.51 1000.48 1587.9 1000.48 1595.51 1008.31 1595.51 1017.98Z" stroke="#FC6255" stroke-width="6.875" stroke-miterlimit="8" fill="#FC6255" fill-rule="evenodd"/><path d="M1492.5 1138.49C1492.5 1147.88 1484.88 1155.49 1475.5 1155.49 1466.11 1155.49 1458.5 1147.88 1458.5 1138.49 1458.5 1129.1 1466.11 1121.49 1475.5 1121.49 1484.88 1121.49 1492.5 1129.1 1492.5 1138.49Z" stroke="#FC6255" stroke-width="6.875" stroke-miterlimit="8" fill="#FC6255" fill-rule="evenodd"/><path d="M1671.52 1165.99C1671.52 1175.66 1663.68 1183.49 1654.02 1183.49 1644.35 1183.49 1636.52 1175.66 1636.52 1165.99 1636.52 1156.33 1644.35 1148.49 1654.02 1148.49 1663.68 1148.49 1671.52 1156.33 1671.52 1165.99Z" stroke="#FC6255" stroke-width="6.875" stroke-miterlimit="8" fill="#FC6255" fill-rule="evenodd"/><path d="M1739.52 1269C1739.52 1278.67 1731.91 1286.5 1722.52 1286.5 1713.13 1286.5 1705.52 1278.67 1705.52 1269 1705.52 1259.34 1713.13 1251.5 1722.52 1251.5 1731.91 1251.5 1739.52 1259.34 1739.52 1269Z" stroke="#FC6255" stroke-width="6.875" stroke-miterlimit="8" fill="#FC6255" fill-rule="evenodd"/><path d="M1561.5 1086.48C1561.5 1095.87 1553.67 1103.48 1544 1103.48 1534.34 1103.48 1526.5 1095.87 1526.5 1086.48 1526.5 1077.1 1534.34 1069.48 1544 1069.48 1553.67 1069.48 1561.5 1077.1 1561.5 1086.48Z" stroke="#FC6255" stroke-width="6.875" stroke-miterlimit="8" fill="#FC6255" fill-rule="evenodd"/><path d="M1705.52 1028.48C1705.52 1037.87 1697.91 1045.48 1688.52 1045.48 1679.13 1045.48 1671.52 1037.87 1671.52 1028.48 1671.52 1019.09 1679.13 1011.48 1688.52 1011.48 1697.91 1011.48 1705.52 1019.09 1705.52 1028.48Z" stroke="#FC6255" stroke-width="6.875" stroke-miterlimit="8" fill="#FC6255" fill-rule="evenodd"/><path d="M1526.5 1207C1526.5 1216.66 1518.89 1224.5 1509.5 1224.5 1500.11 1224.5 1492.5 1216.66 1492.5 1207 1492.5 1197.33 1500.11 1189.5 1509.5 1189.5 1518.89 1189.5 1526.5 1197.33 1526.5 1207Z" stroke="#FC6255" stroke-width="6.875" stroke-miterlimit="8" fill="#FC6255" fill-rule="evenodd"/><path d="M1430.49 1217.5C1430.49 1226.89 1422.88 1234.5 1413.49 1234.5 1404.1 1234.5 1396.49 1226.89 1396.49 1217.5 1396.49 1208.11 1404.1 1200.5 1413.49 1200.5 1422.88 1200.5 1430.49 1208.11 1430.49 1217.5Z" stroke="#FC6255" stroke-width="6.875" stroke-miterlimit="8" fill="#FC6255" fill-rule="evenodd"/><path d="M1427.49 1306.51C1427.49 1315.89 1419.65 1323.51 1409.99 1323.51 1400.32 1323.51 1392.49 1315.89 1392.49 1306.51 1392.49 1297.12 1400.32 1289.51 1409.99 1289.51 1419.65 1289.51 1427.49 1297.12 1427.49 1306.51Z" stroke="#FC6255" stroke-width="6.875" stroke-miterlimit="8" fill="#FC6255" fill-rule="evenodd"/><path d="M1788.53 1306.51C1788.53 1315.89 1780.69 1323.51 1771.03 1323.51 1761.36 1323.51 1753.53 1315.89 1753.53 1306.51 1753.53 1297.12 1761.36 1289.51 1771.03 1289.51 1780.69 1289.51 1788.53 1297.12 1788.53 1306.51Z" stroke="#FC6255" stroke-width="6.875" stroke-miterlimit="8" fill="#FC6255" fill-rule="evenodd"/><path d="M1746.52 1158.99C1746.52 1168.66 1738.91 1176.49 1729.52 1176.49 1720.13 1176.49 1712.52 1168.66 1712.52 1158.99 1712.52 1149.33 1720.13 1141.49 1729.52 1141.49 1738.91 1141.49 1746.52 1149.33 1746.52 1158.99Z" stroke="#FC6255" stroke-width="6.875" stroke-miterlimit="8" fill="#FC6255" fill-rule="evenodd"/><path d="M1643.51 1279.5C1643.51 1288.89 1635.9 1296.5 1626.51 1296.5 1617.12 1296.5 1609.51 1288.89 1609.51 1279.5 1609.51 1270.12 1617.12 1262.5 1626.51 1262.5 1635.9 1262.5 1643.51 1270.12 1643.51 1279.5Z" stroke="#FC6255" stroke-width="6.875" stroke-miterlimit="8" fill="#FC6255" fill-rule="evenodd"/><path d="M1602.51 1148.49C1602.51 1157.88 1594.9 1165.49 1585.51 1165.49 1576.12 1165.49 1568.51 1157.88 1568.51 1148.49 1568.51 1139.1 1576.12 1131.49 1585.51 1131.49 1594.9 1131.49 1602.51 1139.1 1602.51 1148.49Z" stroke="#FC6255" stroke-width="6.875" stroke-miterlimit="8" fill="#FC6255" fill-rule="evenodd"/><path d="M1712.52 1227.5C1712.52 1236.89 1704.91 1244.5 1695.52 1244.5 1686.13 1244.5 1678.52 1236.89 1678.52 1227.5 1678.52 1218.11 1686.13 1210.5 1695.52 1210.5 1704.91 1210.5 1712.52 1218.11 1712.52 1227.5Z" stroke="#FC6255" stroke-width="6.875" stroke-miterlimit="8" fill="#FC6255" fill-rule="evenodd"/><path d="M1856.53 1169.49C1856.53 1178.88 1848.92 1186.49 1839.53 1186.49 1830.15 1186.49 1822.53 1178.88 1822.53 1169.49 1822.53 1160.11 1830.15 1152.49 1839.53 1152.49 1848.92 1152.49 1856.53 1160.11 1856.53 1169.49Z" stroke="#FC6255" stroke-width="6.875" stroke-miterlimit="8" fill="#FC6255" fill-rule="evenodd"/><path d="M1492.5 1069.48C1492.5 1078.87 1484.88 1086.48 1475.5 1086.48 1466.11 1086.48 1458.5 1078.87 1458.5 1069.48 1458.5 1060.1 1466.11 1052.48 1475.5 1052.48 1484.88 1052.48 1492.5 1060.1 1492.5 1069.48Z" stroke="#FC6255" stroke-width="6.875" stroke-miterlimit="8" fill="#FC6255" fill-rule="evenodd"/><path d="M1612.51 1069.48C1612.51 1078.87 1604.9 1086.48 1595.51 1086.48 1586.12 1086.48 1578.51 1078.87 1578.51 1069.48 1578.51 1060.1 1586.12 1052.48 1595.51 1052.48 1604.9 1052.48 1612.51 1060.1 1612.51 1069.48Z" stroke="#FC6255" stroke-width="6.875" stroke-miterlimit="8" fill="#FC6255" fill-rule="evenodd"/><path d="M1406.49 1035.48C1406.49 1044.87 1398.88 1052.48 1389.49 1052.48 1380.1 1052.48 1372.49 1044.87 1372.49 1035.48 1372.49 1026.09 1380.1 1018.48 1389.49 1018.48 1398.88 1018.48 1406.49 1026.09 1406.49 1035.48Z" stroke="#FC6255" stroke-width="6.875" stroke-miterlimit="8" fill="#FC6255" fill-rule="evenodd"/><path d="M1836.53 1258.5C1836.53 1267.89 1828.7 1275.5 1819.03 1275.5 1809.37 1275.5 1801.53 1267.89 1801.53 1258.5 1801.53 1249.11 1809.37 1241.5 1819.03 1241.5 1828.7 1241.5 1836.53 1249.11 1836.53 1258.5Z" stroke="#FC6255" stroke-width="6.875" stroke-miterlimit="8" fill="#FC6255" fill-rule="evenodd"/><path d="M1904.54 1276C1904.54 1285.67 1896.93 1293.5 1887.54 1293.5 1878.15 1293.5 1870.54 1285.67 1870.54 1276 1870.54 1266.34 1878.15 1258.5 1887.54 1258.5 1896.93 1258.5 1904.54 1266.34 1904.54 1276Z" stroke="#FC6255" stroke-width="6.875" stroke-miterlimit="8" fill="#FC6255" fill-rule="evenodd"/><path d="M1767.52 1224.5C1767.52 1233.89 1759.91 1241.5 1750.52 1241.5 1741.14 1241.5 1733.52 1233.89 1733.52 1224.5 1733.52 1215.11 1741.14 1207.5 1750.52 1207.5 1759.91 1207.5 1767.52 1215.11 1767.52 1224.5Z" stroke="#FC6255" stroke-width="6.875" stroke-miterlimit="8" fill="#FC6255" fill-rule="evenodd"/><path d="M1430 1432.12 1770.31 1432.13 1770.31 1445.88 1430 1445.87ZM1763.44 1418.38 1804.69 1439 1763.44 1459.63Z" fill="#58C4DD"/></g></svg>