<svg width="1397" height="1621" xmlns="http://www.w3.org/2000/svg" xmlns:xlink="http://www.w3.org/1999/xlink" overflow="hidden"><defs><clipPath id="clip0"><rect x="1405" y="470" width="1397" height="1621"/></clipPath></defs><g clip-path="url(#clip0)" transform="translate(-1405 -470)"><path d="M1903.97 1402 1903.97 1564.99 1511 1564.99 1511 2091 2696 2091 2696 1671.27 2303.74 1671.27 2303.74 1402 2303.74 1402M1794.33 1946.26 1616.71 1946.26 1616.71 1946.26 1616.71 1910.83 1649.09 1881.49C1703.82 1832.47 1730.29 1804.38 1731.19 1775.04 1731.19 1754.64 1718.84 1738.36 1690.05 1738.36 1668.4 1738.36 1649.62 1749.27 1636.57 1759.11L1619.93 1717.07C1638.89 1702.76 1668.05 1691.31 1702.03 1691.31 1758.73 1691.31 1789.86 1724.4 1789.86 1770.03 1789.86 1812.07 1759.45 1845.53 1723.14 1877.91L1700.06 1897.24 1700.06 1897.95 1794.51 1897.95 1794.33 1946.26 1794.33 1946.26 1794.33 1946.26 1794.33 1946.26ZM2482.97 1901.35 2459.18 1901.35 2459.18 1859.31 2481.9 1859.31C2501.57 1858.95 2526.61 1851.61 2526.61 1830.5 2526.61 1815.47 2514.27 1804.38 2489.59 1804.38 2469.2 1804.38 2447.55 1813.15 2437.18 1819.41L2425.19 1777.01C2440.22 1767.34 2470.27 1758.04 2502.64 1758.04 2556.13 1758.04 2585.82 1786.13 2585.82 1820.48 2585.82 1846.96 2570.79 1867.89 2540.03 1878.63L2540.03 1879.34C2570.08 1884.71 2594.4 1907.43 2594.4 1940.18 2594.4 1984.55 2555.41 2016.93 2491.73 2016.93 2459.36 2016.93 2431.99 2008.34 2417.5 1999.22L2429.49 1955.2C2439.86 1960.57 2463.83 1970.59 2487.62 1970.59 2518.03 1970.59 2533.41 1955.92 2533.41 1937.13 2533.41 1912.44 2508.73 1901.35 2482.97 1901.35ZM2123.8 1736.93 2123.8 1736.93 2067.1 1736.93 2067.1 1538.33 2066.38 1538.33 2018.45 1561.23 2008.79 1517.22 2075.15 1486.45 2123.8 1486.45 2123.8 1736.93Z" fill-rule="evenodd"/><path d="M1793 642C1793 699.99 1745.99 747 1688 747 1630.01 747 1583 699.99 1583 642 1583 584.01 1630.01 537 1688 537 1745.99 537 1793 584.01 1793 642Z" fill-rule="evenodd"/><path d="M1713.71 753.357 1687.66 779.576 1662.33 753C1662.15 753 1662.15 753 1661.97 753 1654.3 758.173 1643.77 763.345 1632 767.983L1695.51 875 1701.57 875 1688.73 853.24 1741 764.237C1732.26 759.6 1723.16 755.497 1713.71 753.357Z" fill-rule="evenodd"/><path d="M1702 916.5C1702 924.508 1695.51 931 1687.5 931 1679.49 931 1673 924.508 1673 916.5 1673 908.492 1679.49 902 1687.5 902 1695.51 902 1702 908.492 1702 916.5Z" fill-rule="evenodd"/><path d="M1909.57 1065.64C1885.97 904.954 1850.55 833.199 1766.67 778.443L1710.34 875.607 1710.34 896.543 1705.51 896.543C1711.05 901.375 1714.63 908.532 1714.63 916.406 1714.63 931.079 1702.65 943.068 1687.98 943.068 1673.31 943.068 1661.33 931.079 1661.33 916.406 1661.33 908.532 1664.91 901.375 1670.45 896.543L1664.37 896.543 1664.37 878.649 1604.28 777.19C1574.95 785.243 1544.36 788.285 1529.34 780.412 1507.7 768.959 1493.03 741.581 1486.06 698.994 1482.3 676.805 1461.38 661.953 1439.02 665.532 1416.84 669.29 1401.82 690.226 1405.58 712.593 1417.2 781.485 1446 828.546 1491.24 852.524 1511.99 863.619 1535.42 868.987 1560.82 868.987 1567.26 868.987 1574.05 868.45 1580.85 867.734L1580.85 1076.38C1580.85 1088.9 1583.71 1101.07 1588.36 1111.63L1588.18 1503.87C1588.18 1530.53 1609.82 1552 1636.29 1552 1662.94 1552 1684.4 1530.35 1684.4 1503.87L1684.4 1168.89 1691.2 1168.89 1691.2 1503.87C1691.2 1530.53 1712.84 1552 1739.31 1552 1765.96 1552 1787.42 1530.35 1787.42 1503.87L1787.24 1111.81C1792.43 1101.07 1795.47 1081.75 1795.47 1068.68L1795.47 936.089C1808.52 968.656 1819.61 1013.39 1829.09 1077.81 1832.13 1098.03 1849.48 1112.7 1869.33 1112.7 1871.3 1112.7 1873.27 1112.52 1875.24 1112.34 1897.41 1108.59 1912.79 1088.01 1909.57 1065.64Z" fill-rule="evenodd"/><path d="M1703 883 1700.11 883 1699.75 883.369 1671 883.369 1671 890 1703 890Z" fill-rule="evenodd"/><path d="M2519 642C2576.96 642 2624 689.045 2624 747 2624 804.956 2576.96 852 2519 852 2461.04 852 2414 804.956 2414 747 2414.18 688.866 2461.04 642 2519 642Z" fill-rule="evenodd"/><path d="M2544.57 858C2544.57 858 2544.39 858 2544.39 858L2518.83 884.576 2492.54 858.179C2483 860.497 2473.82 864.6 2465 869.237L2517.75 958.24 2504.79 980 2510.91 980 2575 872.983C2563.12 868.345 2552.5 863.172 2544.57 858Z" fill-rule="evenodd"/><path d="M2518.5 1007C2526.38 1007 2533 1013.48 2533 1021.59 2533 1029.52 2526.56 1036 2518.5 1036 2510.62 1036 2504 1029.52 2504 1021.59 2504.18 1013.48 2510.62 1007 2518.5 1007Z" fill-rule="evenodd"/><path d="M2768.02 770.581C2745.66 766.823 2724.74 781.677 2721.16 804.048 2714 846.642 2699.34 874.024 2677.69 885.477 2662.67 893.531 2632.08 890.309 2602.75 882.256L2542.65 983.73 2542.65 1001.81 2536.57 1001.81C2542.11 1006.64 2545.69 1013.8 2545.69 1021.67 2545.69 1036.35 2533.71 1048.34 2519.04 1048.34 2504.37 1048.34 2492.39 1036.35 2492.39 1021.67 2492.39 1013.8 2495.97 1006.64 2501.51 1001.81L2496.68 1001.81 2496.68 980.866 2440.34 883.688C2356.45 938.451 2321.04 1010.4 2297.43 1170.93 2294.21 1193.3 2309.59 1213.88 2331.77 1217.1 2333.74 1217.46 2335.7 1217.64 2337.85 1217.64 2357.7 1217.64 2375.05 1203.14 2378.09 1182.74 2387.57 1118.31 2398.66 1073.57 2411.72 1041L2411.72 1173.61C2411.72 1186.68 2414.05 1206.36 2419.23 1217.28 2419.23 1217.64 2419.05 1608.86 2419.05 1608.86 2419.05 1635.52 2440.7 1657 2467.17 1657 2493.82 1657 2515.28 1635.52 2515.28 1608.86L2515.28 1273.83 2522.08 1273.83 2522.08 1608.86C2522.08 1635.52 2543.54 1657 2570.2 1657 2596.85 1657 2618.31 1635.52 2618.31 1608.86L2618.13 1217.28C2622.96 1206.9 2626.36 1186.5 2626.36 1174.15L2626.36 972.634C2633.16 973.35 2639.77 973.887 2646.39 973.887 2671.61 973.887 2695.04 968.339 2715.79 957.243 2761.04 933.261 2789.84 886.193 2801.47 817.291 2805.05 795.457 2790.2 774.339 2768.02 770.581Z" fill-rule="evenodd"/><path d="M2535 988.184 2507.15 988.184 2506.8 988 2504 988 2504 995 2535 995Z" fill-rule="evenodd"/><path d="M2124 751C2124 760.389 2116.39 768 2107 768 2097.61 768 2090 760.389 2090 751 2090 741.611 2097.61 734 2107 734 2116.39 734 2124 741.611 2124 751Z" fill-rule="evenodd"/><path d="M2130.65 561.356 2103.66 588.417 2077.57 561C2077.39 561 2077.39 561 2077.21 561 2071.31 562.424 2059.16 569.902 2042 577.023L2116.35 702 2123.5 702 2108.13 676.186 2168 574.708C2149.95 568.655 2135.65 562.602 2130.65 561.356Z" fill-rule="evenodd"/><path d="M2367.02 472.71C2344.31 468.955 2322.5 484.333 2318.57 507.22 2311.77 547.274 2299.26 573.38 2281.03 584.645 2262.61 596.804 2231.15 593.049 2201.65 585.182L2133.36 702.839 2133.36 727.872 2127.64 727.872C2134.25 733.773 2138.54 742.177 2138.54 751.654 2138.54 769.177 2124.24 783.482 2106.72 783.482 2089.2 783.482 2074.9 769.177 2074.9 751.654 2074.9 742.177 2079.19 733.773 2085.63 727.872L2078.3 727.872 2078.3 706.415 2007.68 587.327C1986.23 591.44 1960.66 591.798 1932.06 582.499 1913.82 571.234 1901.31 545.128 1894.52 505.074 1890.58 482.187 1868.95 466.809 1846.07 470.564 1823.18 474.498 1807.81 496.134 1811.56 519.022 1822.65 584.824 1847.5 628.99 1887.54 653.845 1912.75 669.401 1940.28 675.123 1968.53 675.123 1976.39 675.123 1984.26 674.587 1992.13 673.693L1992.13 894.166C1992.13 908.292 1993.74 919.736 1999.63 931.358L1999.63 1335.29C1999.63 1362.83 2021.98 1385 2049.33 1385 2076.69 1385 2099.03 1362.65 2099.03 1335.29L2099.03 989.293 2106.18 989.293 2106.18 1335.11C2106.18 1362.65 2128.53 1384.82 2155.88 1384.82 2183.41 1384.82 2205.58 1362.65 2205.58 1335.11L2205.23 931.001C2209.69 920.63 2214.16 906.325 2214.16 893.987L2214.16 675.481C2224.18 676.733 2234.19 677.626 2244.2 677.626 2272.44 677.626 2300.15 671.904 2325.18 656.169 2365.23 631.315 2390.26 587.149 2401.34 521.346 2405.45 498.28 2389.9 476.644 2367.02 472.71Z" fill-rule="evenodd"/><path d="M2125 711 2121.4 711 2120.86 711.355 2087 711.355 2087 719 2125 719Z" fill-rule="evenodd"/><path d="M0 0 399.693 0.000360892" stroke="#4472C4" stroke-width="2.29167" stroke-miterlimit="8" fill="none" fill-rule="evenodd" transform="matrix(-1 0 0 1 2303.69 1402)"/></g></svg>